<mxfile host="app.diagrams.net" modified="2023-03-01T20:38:52.886Z" agent="5.0 (Windows)" etag="9yhsv0xUGGhFl1UM_Rx6" version="20.8.23" type="github" pages="2">
  <diagram name="Page-1" id="zze8Qe7sZBzE0vD7aIYS">
    <mxGraphModel dx="1443" dy="727" grid="0" gridSize="10" guides="1" tooltips="1" connect="1" arrows="1" fold="1" page="1" pageScale="1" pageWidth="4681" pageHeight="3300" math="0" shadow="0">
      <root>
        <mxCell id="0" />
        <mxCell id="1" parent="0" />
        <mxCell id="qNEX18z2DEx4JnHS-INu-1" value="Student" style="whiteSpace=wrap;html=1;align=center;fontSize=24;" vertex="1" parent="1">
          <mxGeometry x="370" y="210" width="110" height="50" as="geometry" />
        </mxCell>
        <mxCell id="qNEX18z2DEx4JnHS-INu-2" value="" style="endArrow=none;html=1;rounded=0;fontSize=24;entryX=0;entryY=0.5;entryDx=0;entryDy=0;exitX=0.942;exitY=0.757;exitDx=0;exitDy=0;exitPerimeter=0;" edge="1" parent="1" source="qNEX18z2DEx4JnHS-INu-3" target="qNEX18z2DEx4JnHS-INu-1">
          <mxGeometry relative="1" as="geometry">
            <mxPoint x="320" y="200" as="sourcePoint" />
            <mxPoint x="500" y="230" as="targetPoint" />
          </mxGeometry>
        </mxCell>
        <mxCell id="qNEX18z2DEx4JnHS-INu-3" value="StudID" style="ellipse;whiteSpace=wrap;html=1;align=center;fontStyle=4;fontSize=24;" vertex="1" parent="1">
          <mxGeometry x="230" y="170" width="100" height="70" as="geometry" />
        </mxCell>
        <mxCell id="qNEX18z2DEx4JnHS-INu-4" value="Name" style="ellipse;whiteSpace=wrap;html=1;align=center;fontSize=24;" vertex="1" parent="1">
          <mxGeometry x="370" y="130" width="120" height="50" as="geometry" />
        </mxCell>
        <mxCell id="qNEX18z2DEx4JnHS-INu-5" value="ProgramID" style="ellipse;whiteSpace=wrap;html=1;align=center;fontSize=24;" vertex="1" parent="1">
          <mxGeometry x="510" y="220" width="160" height="60" as="geometry" />
        </mxCell>
        <mxCell id="qNEX18z2DEx4JnHS-INu-6" value="Email" style="ellipse;whiteSpace=wrap;html=1;align=center;fontSize=24;" vertex="1" parent="1">
          <mxGeometry x="520" y="140" width="130" height="50" as="geometry" />
        </mxCell>
        <mxCell id="qNEX18z2DEx4JnHS-INu-7" value="" style="endArrow=none;html=1;rounded=0;fontSize=24;exitX=0.5;exitY=1;exitDx=0;exitDy=0;entryX=0.5;entryY=0;entryDx=0;entryDy=0;" edge="1" parent="1" source="qNEX18z2DEx4JnHS-INu-4" target="qNEX18z2DEx4JnHS-INu-1">
          <mxGeometry relative="1" as="geometry">
            <mxPoint x="340" y="230" as="sourcePoint" />
            <mxPoint x="500" y="230" as="targetPoint" />
          </mxGeometry>
        </mxCell>
        <mxCell id="qNEX18z2DEx4JnHS-INu-8" value="" style="endArrow=none;html=1;rounded=0;fontSize=24;exitX=1;exitY=0.75;exitDx=0;exitDy=0;" edge="1" parent="1" source="qNEX18z2DEx4JnHS-INu-1" target="qNEX18z2DEx4JnHS-INu-5">
          <mxGeometry relative="1" as="geometry">
            <mxPoint x="340" y="230" as="sourcePoint" />
            <mxPoint x="500" y="230" as="targetPoint" />
          </mxGeometry>
        </mxCell>
        <mxCell id="qNEX18z2DEx4JnHS-INu-9" value="" style="endArrow=none;html=1;rounded=0;fontSize=24;exitX=1;exitY=0;exitDx=0;exitDy=0;entryX=0.062;entryY=0.74;entryDx=0;entryDy=0;entryPerimeter=0;" edge="1" parent="1" source="qNEX18z2DEx4JnHS-INu-1" target="qNEX18z2DEx4JnHS-INu-6">
          <mxGeometry relative="1" as="geometry">
            <mxPoint x="340" y="230" as="sourcePoint" />
            <mxPoint x="500" y="230" as="targetPoint" />
          </mxGeometry>
        </mxCell>
        <mxCell id="qNEX18z2DEx4JnHS-INu-10" value="Erolls" style="shape=rhombus;perimeter=rhombusPerimeter;whiteSpace=wrap;html=1;align=center;fontSize=24;" vertex="1" parent="1">
          <mxGeometry x="360" y="340" width="120" height="60" as="geometry" />
        </mxCell>
        <mxCell id="qNEX18z2DEx4JnHS-INu-11" value="" style="endArrow=none;html=1;rounded=0;fontSize=24;exitX=0.5;exitY=1;exitDx=0;exitDy=0;entryX=0.5;entryY=0;entryDx=0;entryDy=0;" edge="1" parent="1" source="qNEX18z2DEx4JnHS-INu-1" target="qNEX18z2DEx4JnHS-INu-10">
          <mxGeometry relative="1" as="geometry">
            <mxPoint x="570" y="440" as="sourcePoint" />
            <mxPoint x="576.03" y="547" as="targetPoint" />
          </mxGeometry>
        </mxCell>
        <mxCell id="qNEX18z2DEx4JnHS-INu-12" value="M" style="resizable=0;html=1;align=left;verticalAlign=bottom;fontSize=24;" connectable="0" vertex="1" parent="qNEX18z2DEx4JnHS-INu-11">
          <mxGeometry x="-1" relative="1" as="geometry">
            <mxPoint y="30" as="offset" />
          </mxGeometry>
        </mxCell>
        <mxCell id="qNEX18z2DEx4JnHS-INu-13" value="" style="endArrow=none;html=1;rounded=0;fontSize=24;exitX=0.5;exitY=1;exitDx=0;exitDy=0;entryX=0.5;entryY=0;entryDx=0;entryDy=0;" edge="1" parent="1" source="qNEX18z2DEx4JnHS-INu-10" target="qNEX18z2DEx4JnHS-INu-15">
          <mxGeometry relative="1" as="geometry">
            <mxPoint x="340" y="370" as="sourcePoint" />
            <mxPoint x="415" y="460" as="targetPoint" />
          </mxGeometry>
        </mxCell>
        <mxCell id="qNEX18z2DEx4JnHS-INu-14" value="N" style="resizable=0;html=1;align=right;verticalAlign=bottom;fontSize=24;" connectable="0" vertex="1" parent="qNEX18z2DEx4JnHS-INu-13">
          <mxGeometry x="1" relative="1" as="geometry" />
        </mxCell>
        <mxCell id="qNEX18z2DEx4JnHS-INu-15" value="Program" style="whiteSpace=wrap;html=1;align=center;fontSize=24;" vertex="1" parent="1">
          <mxGeometry x="365" y="500" width="110" height="50" as="geometry" />
        </mxCell>
        <mxCell id="qNEX18z2DEx4JnHS-INu-16" value="" style="endArrow=none;html=1;rounded=0;fontSize=24;entryX=0;entryY=0.5;entryDx=0;entryDy=0;exitX=1;exitY=0.5;exitDx=0;exitDy=0;" edge="1" parent="1" source="qNEX18z2DEx4JnHS-INu-17" target="qNEX18z2DEx4JnHS-INu-15">
          <mxGeometry relative="1" as="geometry">
            <mxPoint x="320" y="580" as="sourcePoint" />
            <mxPoint x="500" y="610" as="targetPoint" />
          </mxGeometry>
        </mxCell>
        <mxCell id="qNEX18z2DEx4JnHS-INu-17" value="ProgID" style="ellipse;whiteSpace=wrap;html=1;align=center;fontStyle=4;fontSize=24;" vertex="1" parent="1">
          <mxGeometry x="200" y="540" width="100" height="70" as="geometry" />
        </mxCell>
        <mxCell id="qNEX18z2DEx4JnHS-INu-18" value="Title" style="ellipse;whiteSpace=wrap;html=1;align=center;fontSize=24;" vertex="1" parent="1">
          <mxGeometry x="260" y="600" width="120" height="50" as="geometry" />
        </mxCell>
        <mxCell id="qNEX18z2DEx4JnHS-INu-19" value="Descrip" style="ellipse;whiteSpace=wrap;html=1;align=center;fontSize=24;" vertex="1" parent="1">
          <mxGeometry x="425" y="610" width="160" height="60" as="geometry" />
        </mxCell>
        <mxCell id="qNEX18z2DEx4JnHS-INu-20" value="DeptID" style="ellipse;whiteSpace=wrap;html=1;align=center;fontSize=24;" vertex="1" parent="1">
          <mxGeometry x="510" y="550" width="130" height="50" as="geometry" />
        </mxCell>
        <mxCell id="qNEX18z2DEx4JnHS-INu-21" value="" style="endArrow=none;html=1;rounded=0;fontSize=24;exitX=0.783;exitY=0.04;exitDx=0;exitDy=0;entryX=0.318;entryY=1.04;entryDx=0;entryDy=0;entryPerimeter=0;exitPerimeter=0;" edge="1" parent="1" source="qNEX18z2DEx4JnHS-INu-18" target="qNEX18z2DEx4JnHS-INu-15">
          <mxGeometry relative="1" as="geometry">
            <mxPoint x="340" y="610" as="sourcePoint" />
            <mxPoint x="500" y="610" as="targetPoint" />
          </mxGeometry>
        </mxCell>
        <mxCell id="qNEX18z2DEx4JnHS-INu-22" value="" style="endArrow=none;html=1;rounded=0;fontSize=24;exitX=0.75;exitY=1;exitDx=0;exitDy=0;" edge="1" parent="1" source="qNEX18z2DEx4JnHS-INu-15" target="qNEX18z2DEx4JnHS-INu-19">
          <mxGeometry relative="1" as="geometry">
            <mxPoint x="340" y="610" as="sourcePoint" />
            <mxPoint x="500" y="610" as="targetPoint" />
          </mxGeometry>
        </mxCell>
        <mxCell id="qNEX18z2DEx4JnHS-INu-23" value="" style="endArrow=none;html=1;rounded=0;fontSize=24;exitX=1;exitY=0.5;exitDx=0;exitDy=0;entryX=0;entryY=0.5;entryDx=0;entryDy=0;" edge="1" parent="1" source="qNEX18z2DEx4JnHS-INu-15" target="qNEX18z2DEx4JnHS-INu-20">
          <mxGeometry relative="1" as="geometry">
            <mxPoint x="340" y="610" as="sourcePoint" />
            <mxPoint x="500" y="610" as="targetPoint" />
          </mxGeometry>
        </mxCell>
        <mxCell id="qNEX18z2DEx4JnHS-INu-24" value="Has" style="shape=rhombus;perimeter=rhombusPerimeter;whiteSpace=wrap;html=1;align=center;fontSize=24;" vertex="1" parent="1">
          <mxGeometry x="600" y="475" width="120" height="60" as="geometry" />
        </mxCell>
        <mxCell id="qNEX18z2DEx4JnHS-INu-25" value="" style="endArrow=none;html=1;rounded=0;fontSize=24;entryX=1;entryY=0.5;entryDx=0;entryDy=0;exitX=0;exitY=0.5;exitDx=0;exitDy=0;" edge="1" parent="1" source="qNEX18z2DEx4JnHS-INu-24" target="qNEX18z2DEx4JnHS-INu-15">
          <mxGeometry relative="1" as="geometry">
            <mxPoint x="340" y="420" as="sourcePoint" />
            <mxPoint x="500" y="420" as="targetPoint" />
          </mxGeometry>
        </mxCell>
        <mxCell id="qNEX18z2DEx4JnHS-INu-26" value="1" style="resizable=0;html=1;align=right;verticalAlign=bottom;fontSize=24;" connectable="0" vertex="1" parent="qNEX18z2DEx4JnHS-INu-25">
          <mxGeometry x="1" relative="1" as="geometry">
            <mxPoint x="20" y="5" as="offset" />
          </mxGeometry>
        </mxCell>
        <mxCell id="qNEX18z2DEx4JnHS-INu-27" value="" style="shape=link;html=1;rounded=0;fontSize=24;exitX=1;exitY=0.5;exitDx=0;exitDy=0;entryX=0;entryY=0.5;entryDx=0;entryDy=0;" edge="1" parent="1" source="qNEX18z2DEx4JnHS-INu-24" target="qNEX18z2DEx4JnHS-INu-29">
          <mxGeometry relative="1" as="geometry">
            <mxPoint x="690" y="459.5" as="sourcePoint" />
            <mxPoint x="760" y="460" as="targetPoint" />
          </mxGeometry>
        </mxCell>
        <mxCell id="qNEX18z2DEx4JnHS-INu-28" value="N" style="resizable=0;html=1;align=right;verticalAlign=bottom;fontSize=24;" connectable="0" vertex="1" parent="qNEX18z2DEx4JnHS-INu-27">
          <mxGeometry x="1" relative="1" as="geometry" />
        </mxCell>
        <mxCell id="qNEX18z2DEx4JnHS-INu-29" value="Courses" style="whiteSpace=wrap;html=1;align=center;fontSize=24;" vertex="1" parent="1">
          <mxGeometry x="780" y="435" width="110" height="50" as="geometry" />
        </mxCell>
        <mxCell id="qNEX18z2DEx4JnHS-INu-30" value="" style="endArrow=none;html=1;rounded=0;fontSize=24;exitX=0.5;exitY=0;exitDx=0;exitDy=0;entryX=0.682;entryY=0.98;entryDx=0;entryDy=0;entryPerimeter=0;" edge="1" parent="1" source="qNEX18z2DEx4JnHS-INu-31" target="qNEX18z2DEx4JnHS-INu-29">
          <mxGeometry relative="1" as="geometry">
            <mxPoint x="790" y="370" as="sourcePoint" />
            <mxPoint x="840" y="490" as="targetPoint" />
          </mxGeometry>
        </mxCell>
        <mxCell id="qNEX18z2DEx4JnHS-INu-31" value="CouID" style="ellipse;whiteSpace=wrap;html=1;align=center;fontStyle=4;fontSize=24;" vertex="1" parent="1">
          <mxGeometry x="840" y="550" width="100" height="70" as="geometry" />
        </mxCell>
        <mxCell id="qNEX18z2DEx4JnHS-INu-32" value="Name" style="ellipse;whiteSpace=wrap;html=1;align=center;fontSize=24;" vertex="1" parent="1">
          <mxGeometry x="940" y="535" width="120" height="50" as="geometry" />
        </mxCell>
        <mxCell id="qNEX18z2DEx4JnHS-INu-33" value="ProgramID" style="ellipse;whiteSpace=wrap;html=1;align=center;fontSize=24;" vertex="1" parent="1">
          <mxGeometry x="930" y="460" width="160" height="60" as="geometry" />
        </mxCell>
        <mxCell id="qNEX18z2DEx4JnHS-INu-34" value="Credit" style="ellipse;whiteSpace=wrap;html=1;align=center;fontSize=24;" vertex="1" parent="1">
          <mxGeometry x="960" y="400" width="130" height="50" as="geometry" />
        </mxCell>
        <mxCell id="qNEX18z2DEx4JnHS-INu-35" value="" style="endArrow=none;html=1;rounded=0;fontSize=24;entryX=0.855;entryY=0.98;entryDx=0;entryDy=0;exitX=0.25;exitY=0.02;exitDx=0;exitDy=0;exitPerimeter=0;entryPerimeter=0;" edge="1" parent="1" source="qNEX18z2DEx4JnHS-INu-32" target="qNEX18z2DEx4JnHS-INu-29">
          <mxGeometry relative="1" as="geometry">
            <mxPoint x="870" y="530" as="sourcePoint" />
            <mxPoint x="970" y="400" as="targetPoint" />
          </mxGeometry>
        </mxCell>
        <mxCell id="qNEX18z2DEx4JnHS-INu-36" value="" style="endArrow=none;html=1;rounded=0;fontSize=24;exitX=1;exitY=0.75;exitDx=0;exitDy=0;" edge="1" parent="1" source="qNEX18z2DEx4JnHS-INu-29" target="qNEX18z2DEx4JnHS-INu-33">
          <mxGeometry relative="1" as="geometry">
            <mxPoint x="810" y="400" as="sourcePoint" />
            <mxPoint x="970" y="400" as="targetPoint" />
          </mxGeometry>
        </mxCell>
        <mxCell id="qNEX18z2DEx4JnHS-INu-37" value="" style="endArrow=none;html=1;rounded=0;fontSize=24;exitX=1;exitY=0.5;exitDx=0;exitDy=0;entryX=0.062;entryY=0.74;entryDx=0;entryDy=0;entryPerimeter=0;" edge="1" parent="1" source="qNEX18z2DEx4JnHS-INu-29" target="qNEX18z2DEx4JnHS-INu-34">
          <mxGeometry relative="1" as="geometry">
            <mxPoint x="810" y="400" as="sourcePoint" />
            <mxPoint x="970" y="400" as="targetPoint" />
          </mxGeometry>
        </mxCell>
        <mxCell id="qNEX18z2DEx4JnHS-INu-38" value="Offer" style="shape=rhombus;perimeter=rhombusPerimeter;whiteSpace=wrap;html=1;align=center;fontSize=24;" vertex="1" parent="1">
          <mxGeometry x="300" y="730" width="120" height="90" as="geometry" />
        </mxCell>
        <mxCell id="qNEX18z2DEx4JnHS-INu-39" value="" style="shape=link;html=1;rounded=0;fontSize=24;exitX=0.5;exitY=0;exitDx=0;exitDy=0;entryX=0.5;entryY=1;entryDx=0;entryDy=0;" edge="1" parent="1" source="qNEX18z2DEx4JnHS-INu-38" target="qNEX18z2DEx4JnHS-INu-15">
          <mxGeometry relative="1" as="geometry">
            <mxPoint x="680" y="880" as="sourcePoint" />
            <mxPoint x="840" y="880" as="targetPoint" />
          </mxGeometry>
        </mxCell>
        <mxCell id="qNEX18z2DEx4JnHS-INu-40" value="N" style="resizable=0;html=1;align=right;verticalAlign=bottom;fontSize=24;" connectable="0" vertex="1" parent="1">
          <mxGeometry x="440" y="575" as="geometry" />
        </mxCell>
        <mxCell id="qNEX18z2DEx4JnHS-INu-41" value="" style="endArrow=none;html=1;rounded=0;fontSize=24;entryX=0.436;entryY=-0.02;entryDx=0;entryDy=0;exitX=0.5;exitY=1;exitDx=0;exitDy=0;entryPerimeter=0;" edge="1" parent="1" source="qNEX18z2DEx4JnHS-INu-38" target="qNEX18z2DEx4JnHS-INu-43">
          <mxGeometry relative="1" as="geometry">
            <mxPoint x="680" y="790" as="sourcePoint" />
            <mxPoint x="357.0499999999997" y="881.9799999999998" as="targetPoint" />
          </mxGeometry>
        </mxCell>
        <mxCell id="qNEX18z2DEx4JnHS-INu-42" value="1" style="resizable=0;html=1;align=right;verticalAlign=bottom;fontSize=24;" connectable="0" vertex="1" parent="qNEX18z2DEx4JnHS-INu-41">
          <mxGeometry x="1" relative="1" as="geometry">
            <mxPoint x="-10" as="offset" />
          </mxGeometry>
        </mxCell>
        <mxCell id="qNEX18z2DEx4JnHS-INu-43" value="Department" style="whiteSpace=wrap;html=1;align=center;fontSize=24;" vertex="1" parent="1">
          <mxGeometry x="300" y="880" width="140" height="50" as="geometry" />
        </mxCell>
        <mxCell id="qNEX18z2DEx4JnHS-INu-44" value="" style="endArrow=none;html=1;rounded=0;fontSize=24;entryX=0;entryY=1;entryDx=0;entryDy=0;exitX=0.5;exitY=0;exitDx=0;exitDy=0;" edge="1" parent="1" source="qNEX18z2DEx4JnHS-INu-45" target="qNEX18z2DEx4JnHS-INu-43">
          <mxGeometry relative="1" as="geometry">
            <mxPoint x="310" y="890" as="sourcePoint" />
            <mxPoint x="490" y="920" as="targetPoint" />
          </mxGeometry>
        </mxCell>
        <mxCell id="qNEX18z2DEx4JnHS-INu-45" value="DepID" style="ellipse;whiteSpace=wrap;html=1;align=center;fontStyle=4;fontSize=24;" vertex="1" parent="1">
          <mxGeometry x="200" y="985" width="100" height="70" as="geometry" />
        </mxCell>
        <mxCell id="qNEX18z2DEx4JnHS-INu-46" value="Name" style="ellipse;whiteSpace=wrap;html=1;align=center;fontSize=24;" vertex="1" parent="1">
          <mxGeometry x="320" y="1005" width="120" height="50" as="geometry" />
        </mxCell>
        <mxCell id="qNEX18z2DEx4JnHS-INu-47" value="Location" style="ellipse;whiteSpace=wrap;html=1;align=center;fontSize=24;" vertex="1" parent="1">
          <mxGeometry x="425" y="970" width="160" height="60" as="geometry" />
        </mxCell>
        <mxCell id="qNEX18z2DEx4JnHS-INu-49" value="" style="endArrow=none;html=1;rounded=0;fontSize=24;entryX=0.5;entryY=1;entryDx=0;entryDy=0;exitX=0.25;exitY=0.02;exitDx=0;exitDy=0;exitPerimeter=0;" edge="1" parent="1" source="qNEX18z2DEx4JnHS-INu-46" target="qNEX18z2DEx4JnHS-INu-43">
          <mxGeometry relative="1" as="geometry">
            <mxPoint x="390" y="1050" as="sourcePoint" />
            <mxPoint x="490" y="920" as="targetPoint" />
          </mxGeometry>
        </mxCell>
        <mxCell id="qNEX18z2DEx4JnHS-INu-50" value="" style="endArrow=none;html=1;rounded=0;fontSize=24;exitX=1;exitY=0.75;exitDx=0;exitDy=0;" edge="1" parent="1" source="qNEX18z2DEx4JnHS-INu-43" target="qNEX18z2DEx4JnHS-INu-47">
          <mxGeometry relative="1" as="geometry">
            <mxPoint x="330" y="920" as="sourcePoint" />
            <mxPoint x="490" y="920" as="targetPoint" />
          </mxGeometry>
        </mxCell>
        <mxCell id="qNEX18z2DEx4JnHS-INu-52" value="N" style="resizable=0;html=1;align=right;verticalAlign=bottom;fontSize=24;" connectable="0" vertex="1" parent="1">
          <mxGeometry x="910.0033333333336" y="840" as="geometry" />
        </mxCell>
        <mxCell id="qNEX18z2DEx4JnHS-INu-53" value="Faculty" style="whiteSpace=wrap;html=1;align=center;fontSize=24;" vertex="1" parent="1">
          <mxGeometry x="920.27" y="810" width="129.73" height="70" as="geometry" />
        </mxCell>
        <mxCell id="qNEX18z2DEx4JnHS-INu-54" value="" style="endArrow=none;html=1;rounded=0;fontSize=24;entryX=0.409;entryY=1;entryDx=0;entryDy=0;entryPerimeter=0;exitX=0.5;exitY=0;exitDx=0;exitDy=0;" edge="1" parent="1" source="qNEX18z2DEx4JnHS-INu-55" target="qNEX18z2DEx4JnHS-INu-53">
          <mxGeometry relative="1" as="geometry">
            <mxPoint x="980.27" y="850" as="sourcePoint" />
            <mxPoint x="1160.27" y="880" as="targetPoint" />
          </mxGeometry>
        </mxCell>
        <mxCell id="qNEX18z2DEx4JnHS-INu-55" value="FacultyId" style="ellipse;whiteSpace=wrap;html=1;align=center;fontStyle=4;fontSize=24;" vertex="1" parent="1">
          <mxGeometry x="810" y="915" width="150" height="55" as="geometry" />
        </mxCell>
        <mxCell id="qNEX18z2DEx4JnHS-INu-56" value="Name" style="ellipse;whiteSpace=wrap;html=1;align=center;fontSize=24;" vertex="1" parent="1">
          <mxGeometry x="970" y="925" width="120" height="50" as="geometry" />
        </mxCell>
        <mxCell id="qNEX18z2DEx4JnHS-INu-57" value="EmailId" style="ellipse;whiteSpace=wrap;html=1;align=center;fontSize=24;" vertex="1" parent="1">
          <mxGeometry x="1110" y="900" width="160" height="60" as="geometry" />
        </mxCell>
        <mxCell id="qNEX18z2DEx4JnHS-INu-58" value="DepId" style="ellipse;whiteSpace=wrap;html=1;align=center;fontSize=24;" vertex="1" parent="1">
          <mxGeometry x="1080" y="815" width="130" height="50" as="geometry" />
        </mxCell>
        <mxCell id="qNEX18z2DEx4JnHS-INu-59" value="" style="endArrow=none;html=1;rounded=0;fontSize=24;entryX=0.5;entryY=1;entryDx=0;entryDy=0;exitX=0.25;exitY=0.02;exitDx=0;exitDy=0;exitPerimeter=0;" edge="1" parent="1" source="qNEX18z2DEx4JnHS-INu-56" target="qNEX18z2DEx4JnHS-INu-53">
          <mxGeometry relative="1" as="geometry">
            <mxPoint x="1060.27" y="1010" as="sourcePoint" />
            <mxPoint x="1160.27" y="880" as="targetPoint" />
          </mxGeometry>
        </mxCell>
        <mxCell id="qNEX18z2DEx4JnHS-INu-60" value="" style="endArrow=none;html=1;rounded=0;fontSize=24;exitX=1;exitY=0.75;exitDx=0;exitDy=0;" edge="1" parent="1" source="qNEX18z2DEx4JnHS-INu-53" target="qNEX18z2DEx4JnHS-INu-57">
          <mxGeometry relative="1" as="geometry">
            <mxPoint x="1000.27" y="880" as="sourcePoint" />
            <mxPoint x="1160.27" y="880" as="targetPoint" />
          </mxGeometry>
        </mxCell>
        <mxCell id="qNEX18z2DEx4JnHS-INu-61" value="" style="endArrow=none;html=1;rounded=0;fontSize=24;exitX=1;exitY=0.5;exitDx=0;exitDy=0;entryX=0.062;entryY=0.74;entryDx=0;entryDy=0;entryPerimeter=0;" edge="1" parent="1" source="qNEX18z2DEx4JnHS-INu-53" target="qNEX18z2DEx4JnHS-INu-58">
          <mxGeometry relative="1" as="geometry">
            <mxPoint x="1000.27" y="880" as="sourcePoint" />
            <mxPoint x="1160.27" y="880" as="targetPoint" />
          </mxGeometry>
        </mxCell>
        <mxCell id="qNEX18z2DEx4JnHS-INu-62" value="" style="endArrow=none;html=1;rounded=0;fontSize=24;entryX=1;entryY=0;entryDx=0;entryDy=0;exitX=0;exitY=0.5;exitDx=0;exitDy=0;" edge="1" parent="1" source="qNEX18z2DEx4JnHS-INu-64" target="qNEX18z2DEx4JnHS-INu-43">
          <mxGeometry relative="1" as="geometry">
            <mxPoint x="660" y="670" as="sourcePoint" />
            <mxPoint x="820" y="670" as="targetPoint" />
          </mxGeometry>
        </mxCell>
        <mxCell id="qNEX18z2DEx4JnHS-INu-63" value="1" style="resizable=0;html=1;align=right;verticalAlign=bottom;fontSize=24;" connectable="0" vertex="1" parent="qNEX18z2DEx4JnHS-INu-62">
          <mxGeometry x="1" relative="1" as="geometry" />
        </mxCell>
        <mxCell id="qNEX18z2DEx4JnHS-INu-64" value="Has" style="shape=rhombus;perimeter=rhombusPerimeter;whiteSpace=wrap;html=1;align=center;fontSize=24;" vertex="1" parent="1">
          <mxGeometry x="650" y="750" width="140" height="130" as="geometry" />
        </mxCell>
        <mxCell id="qNEX18z2DEx4JnHS-INu-65" value="" style="endArrow=none;html=1;rounded=0;fontSize=24;exitX=1;exitY=0.5;exitDx=0;exitDy=0;entryX=0;entryY=0.5;entryDx=0;entryDy=0;" edge="1" parent="1" source="qNEX18z2DEx4JnHS-INu-64" target="qNEX18z2DEx4JnHS-INu-53">
          <mxGeometry relative="1" as="geometry">
            <mxPoint x="660" y="670" as="sourcePoint" />
            <mxPoint x="820" y="670" as="targetPoint" />
          </mxGeometry>
        </mxCell>
        <mxCell id="qNEX18z2DEx4JnHS-INu-66" value="" style="endArrow=none;html=1;rounded=0;fontSize=24;entryX=0.25;entryY=0;entryDx=0;entryDy=0;exitX=0.25;exitY=1;exitDx=0;exitDy=0;startArrow=none;" edge="1" parent="1" source="qNEX18z2DEx4JnHS-INu-70" target="qNEX18z2DEx4JnHS-INu-53">
          <mxGeometry relative="1" as="geometry">
            <mxPoint x="660" y="710" as="sourcePoint" />
            <mxPoint x="820" y="710" as="targetPoint" />
            <Array as="points">
              <mxPoint x="765" y="730" />
              <mxPoint x="830" y="680" />
            </Array>
          </mxGeometry>
        </mxCell>
        <mxCell id="qNEX18z2DEx4JnHS-INu-67" value="N" style="resizable=0;html=1;align=right;verticalAlign=bottom;fontSize=24;" connectable="0" vertex="1" parent="qNEX18z2DEx4JnHS-INu-66">
          <mxGeometry x="1" relative="1" as="geometry">
            <mxPoint x="8" as="offset" />
          </mxGeometry>
        </mxCell>
        <mxCell id="qNEX18z2DEx4JnHS-INu-68" value="" style="endArrow=none;html=1;rounded=0;fontSize=24;entryX=0.25;entryY=0;entryDx=0;entryDy=0;exitX=0.25;exitY=1;exitDx=0;exitDy=0;" edge="1" parent="1" source="qNEX18z2DEx4JnHS-INu-29" target="qNEX18z2DEx4JnHS-INu-70">
          <mxGeometry relative="1" as="geometry">
            <mxPoint x="808" y="485" as="sourcePoint" />
            <mxPoint x="953" y="810" as="targetPoint" />
            <Array as="points" />
          </mxGeometry>
        </mxCell>
        <mxCell id="qNEX18z2DEx4JnHS-INu-69" value="M" style="resizable=0;html=1;align=left;verticalAlign=bottom;fontSize=24;" connectable="0" vertex="1" parent="qNEX18z2DEx4JnHS-INu-68">
          <mxGeometry x="-1" relative="1" as="geometry">
            <mxPoint x="-17" y="25" as="offset" />
          </mxGeometry>
        </mxCell>
        <mxCell id="qNEX18z2DEx4JnHS-INu-70" value="Teaches" style="shape=rhombus;perimeter=rhombusPerimeter;whiteSpace=wrap;html=1;align=center;fontSize=24;" vertex="1" parent="1">
          <mxGeometry x="700" y="630" width="130" height="100" as="geometry" />
        </mxCell>
        <mxCell id="qNEX18z2DEx4JnHS-INu-71" value="Has" style="shape=rhombus;perimeter=rhombusPerimeter;whiteSpace=wrap;html=1;align=center;fontSize=24;" vertex="1" parent="1">
          <mxGeometry x="660" y="1005" width="140" height="130" as="geometry" />
        </mxCell>
        <mxCell id="qNEX18z2DEx4JnHS-INu-72" value="" style="shape=link;html=1;rounded=0;fontSize=24;entryX=0;entryY=0.5;entryDx=0;entryDy=0;" edge="1" parent="1" target="qNEX18z2DEx4JnHS-INu-87">
          <mxGeometry relative="1" as="geometry">
            <mxPoint x="800" y="1069.5" as="sourcePoint" />
            <mxPoint x="960" y="1069.5" as="targetPoint" />
          </mxGeometry>
        </mxCell>
        <mxCell id="qNEX18z2DEx4JnHS-INu-73" value="1" style="resizable=0;html=1;align=right;verticalAlign=bottom;fontSize=24;direction=south;" connectable="0" vertex="1" parent="qNEX18z2DEx4JnHS-INu-72">
          <mxGeometry x="1" relative="1" as="geometry" />
        </mxCell>
        <mxCell id="qNEX18z2DEx4JnHS-INu-74" value="" style="endArrow=none;html=1;rounded=0;fontSize=24;exitX=0.3;exitY=0.2;exitDx=0;exitDy=0;exitPerimeter=0;entryX=1;entryY=0.5;entryDx=0;entryDy=0;" edge="1" parent="1" target="qNEX18z2DEx4JnHS-INu-43">
          <mxGeometry relative="1" as="geometry">
            <mxPoint x="706" y="1030" as="sourcePoint" />
            <mxPoint x="450" y="910" as="targetPoint" />
          </mxGeometry>
        </mxCell>
        <mxCell id="qNEX18z2DEx4JnHS-INu-75" value="1" style="resizable=0;html=1;align=right;verticalAlign=bottom;fontSize=24;" connectable="0" vertex="1" parent="qNEX18z2DEx4JnHS-INu-74">
          <mxGeometry x="1" relative="1" as="geometry">
            <mxPoint x="30" y="38" as="offset" />
          </mxGeometry>
        </mxCell>
        <mxCell id="qNEX18z2DEx4JnHS-INu-76" value="" style="resizable=0;html=1;align=right;verticalAlign=bottom;fontSize=24;" connectable="0" vertex="1" parent="1">
          <mxGeometry x="950.0033333333336" y="1070.08" as="geometry" />
        </mxCell>
        <mxCell id="qNEX18z2DEx4JnHS-INu-77" value="" style="endArrow=none;html=1;rounded=0;fontSize=24;entryX=0.25;entryY=1;entryDx=0;entryDy=0;exitX=0.5;exitY=0;exitDx=0;exitDy=0;" edge="1" parent="1" source="qNEX18z2DEx4JnHS-INu-78" target="qNEX18z2DEx4JnHS-INu-87">
          <mxGeometry relative="1" as="geometry">
            <mxPoint x="1020.27" y="1080.08" as="sourcePoint" />
            <mxPoint x="1013.3295699999999" y="1110.08" as="targetPoint" />
          </mxGeometry>
        </mxCell>
        <mxCell id="qNEX18z2DEx4JnHS-INu-78" value="ScheduleID" style="ellipse;whiteSpace=wrap;html=1;align=center;fontStyle=4;fontSize=24;" vertex="1" parent="1">
          <mxGeometry x="820" y="1230" width="150" height="55" as="geometry" />
        </mxCell>
        <mxCell id="qNEX18z2DEx4JnHS-INu-79" value="DeptID" style="ellipse;whiteSpace=wrap;html=1;align=center;fontSize=24;" vertex="1" parent="1">
          <mxGeometry x="982" y="1245" width="120" height="50" as="geometry" />
        </mxCell>
        <mxCell id="qNEX18z2DEx4JnHS-INu-80" value="Day" style="ellipse;whiteSpace=wrap;html=1;align=center;fontSize=24;" vertex="1" parent="1">
          <mxGeometry x="1117" y="1253" width="160" height="60" as="geometry" />
        </mxCell>
        <mxCell id="qNEX18z2DEx4JnHS-INu-81" value="Location" style="ellipse;whiteSpace=wrap;html=1;align=center;fontSize=24;" vertex="1" parent="1">
          <mxGeometry x="1164" y="1125.04" width="130" height="50" as="geometry" />
        </mxCell>
        <mxCell id="qNEX18z2DEx4JnHS-INu-82" value="" style="endArrow=none;html=1;rounded=0;fontSize=24;exitX=0.25;exitY=0.02;exitDx=0;exitDy=0;exitPerimeter=0;entryX=0.394;entryY=1.013;entryDx=0;entryDy=0;entryPerimeter=0;" edge="1" parent="1" source="qNEX18z2DEx4JnHS-INu-79" target="qNEX18z2DEx4JnHS-INu-87">
          <mxGeometry relative="1" as="geometry">
            <mxPoint x="1100.27" y="1240.08" as="sourcePoint" />
            <mxPoint x="1025" y="1100" as="targetPoint" />
          </mxGeometry>
        </mxCell>
        <mxCell id="qNEX18z2DEx4JnHS-INu-83" value="" style="endArrow=none;html=1;rounded=0;fontSize=24;exitX=0.75;exitY=1;exitDx=0;exitDy=0;" edge="1" parent="1" source="qNEX18z2DEx4JnHS-INu-87" target="qNEX18z2DEx4JnHS-INu-80">
          <mxGeometry relative="1" as="geometry">
            <mxPoint x="1090" y="1092.58" as="sourcePoint" />
            <mxPoint x="1200.27" y="1110.08" as="targetPoint" />
          </mxGeometry>
        </mxCell>
        <mxCell id="qNEX18z2DEx4JnHS-INu-84" value="" style="endArrow=none;html=1;rounded=0;fontSize=24;exitX=1;exitY=0.5;exitDx=0;exitDy=0;entryX=0.062;entryY=0.74;entryDx=0;entryDy=0;entryPerimeter=0;" edge="1" parent="1" source="qNEX18z2DEx4JnHS-INu-87" target="qNEX18z2DEx4JnHS-INu-81">
          <mxGeometry relative="1" as="geometry">
            <mxPoint x="1090" y="1075.08" as="sourcePoint" />
            <mxPoint x="1200.27" y="1110.08" as="targetPoint" />
          </mxGeometry>
        </mxCell>
        <mxCell id="qNEX18z2DEx4JnHS-INu-85" value="Time" style="ellipse;whiteSpace=wrap;html=1;align=center;fontSize=24;" vertex="1" parent="1">
          <mxGeometry x="1164" y="1187" width="130" height="50" as="geometry" />
        </mxCell>
        <mxCell id="qNEX18z2DEx4JnHS-INu-86" value="" style="endArrow=none;html=1;rounded=0;fontSize=24;entryX=0.062;entryY=0.74;entryDx=0;entryDy=0;entryPerimeter=0;exitX=1;exitY=1;exitDx=0;exitDy=0;" edge="1" parent="1" source="qNEX18z2DEx4JnHS-INu-87" target="qNEX18z2DEx4JnHS-INu-85">
          <mxGeometry relative="1" as="geometry">
            <mxPoint x="1088.96216" y="1085.02" as="sourcePoint" />
            <mxPoint x="1350.27" y="1145.08" as="targetPoint" />
          </mxGeometry>
        </mxCell>
        <mxCell id="qNEX18z2DEx4JnHS-INu-87" value="Schedule" style="shape=ext;margin=3;double=1;whiteSpace=wrap;html=1;align=center;fontSize=24;" vertex="1" parent="1">
          <mxGeometry x="952" y="1105.08" width="160" height="70" as="geometry" />
        </mxCell>
        <mxCell id="qNEX18z2DEx4JnHS-INu-88" value="Admission" style="whiteSpace=wrap;html=1;align=center;fontSize=24;" vertex="1" parent="1">
          <mxGeometry x="1030" y="180" width="120" height="70" as="geometry" />
        </mxCell>
        <mxCell id="qNEX18z2DEx4JnHS-INu-89" value="" style="endArrow=none;html=1;rounded=0;fontSize=24;entryX=0;entryY=0.5;entryDx=0;entryDy=0;exitX=0.942;exitY=0.757;exitDx=0;exitDy=0;exitPerimeter=0;" edge="1" parent="1" source="qNEX18z2DEx4JnHS-INu-90" target="qNEX18z2DEx4JnHS-INu-88">
          <mxGeometry relative="1" as="geometry">
            <mxPoint x="980" y="180" as="sourcePoint" />
            <mxPoint x="1160" y="210" as="targetPoint" />
          </mxGeometry>
        </mxCell>
        <mxCell id="qNEX18z2DEx4JnHS-INu-90" value="AppID" style="ellipse;whiteSpace=wrap;html=1;align=center;fontStyle=4;fontSize=24;" vertex="1" parent="1">
          <mxGeometry x="890" y="150" width="100" height="70" as="geometry" />
        </mxCell>
        <mxCell id="qNEX18z2DEx4JnHS-INu-91" value="Name" style="ellipse;whiteSpace=wrap;html=1;align=center;fontSize=24;" vertex="1" parent="1">
          <mxGeometry x="1030" y="110" width="120" height="50" as="geometry" />
        </mxCell>
        <mxCell id="qNEX18z2DEx4JnHS-INu-92" value="ProgramID" style="ellipse;whiteSpace=wrap;html=1;align=center;fontSize=24;" vertex="1" parent="1">
          <mxGeometry x="1180" y="175" width="160" height="60" as="geometry" />
        </mxCell>
        <mxCell id="qNEX18z2DEx4JnHS-INu-93" value="Email" style="ellipse;whiteSpace=wrap;html=1;align=center;fontSize=24;" vertex="1" parent="1">
          <mxGeometry x="1180" y="120" width="130" height="50" as="geometry" />
        </mxCell>
        <mxCell id="qNEX18z2DEx4JnHS-INu-94" value="" style="endArrow=none;html=1;rounded=0;fontSize=24;exitX=0.5;exitY=1;exitDx=0;exitDy=0;entryX=0.5;entryY=0;entryDx=0;entryDy=0;" edge="1" parent="1" source="qNEX18z2DEx4JnHS-INu-91" target="qNEX18z2DEx4JnHS-INu-88">
          <mxGeometry relative="1" as="geometry">
            <mxPoint x="1000" y="210" as="sourcePoint" />
            <mxPoint x="1160" y="210" as="targetPoint" />
          </mxGeometry>
        </mxCell>
        <mxCell id="qNEX18z2DEx4JnHS-INu-95" value="" style="endArrow=none;html=1;rounded=0;fontSize=24;exitX=1.025;exitY=0.414;exitDx=0;exitDy=0;exitPerimeter=0;" edge="1" parent="1" source="qNEX18z2DEx4JnHS-INu-88" target="qNEX18z2DEx4JnHS-INu-92">
          <mxGeometry relative="1" as="geometry">
            <mxPoint x="1000" y="210" as="sourcePoint" />
            <mxPoint x="1160" y="210" as="targetPoint" />
          </mxGeometry>
        </mxCell>
        <mxCell id="qNEX18z2DEx4JnHS-INu-96" value="" style="endArrow=none;html=1;rounded=0;fontSize=24;exitX=1;exitY=0;exitDx=0;exitDy=0;entryX=0.062;entryY=0.74;entryDx=0;entryDy=0;entryPerimeter=0;" edge="1" parent="1" source="qNEX18z2DEx4JnHS-INu-88" target="qNEX18z2DEx4JnHS-INu-93">
          <mxGeometry relative="1" as="geometry">
            <mxPoint x="1000" y="210" as="sourcePoint" />
            <mxPoint x="1160" y="210" as="targetPoint" />
          </mxGeometry>
        </mxCell>
        <mxCell id="qNEX18z2DEx4JnHS-INu-97" value="" style="endArrow=none;html=1;rounded=0;fontSize=24;exitX=1;exitY=0.75;exitDx=0;exitDy=0;" edge="1" parent="1" source="qNEX18z2DEx4JnHS-INu-88">
          <mxGeometry relative="1" as="geometry">
            <mxPoint x="1170" y="290" as="sourcePoint" />
            <mxPoint x="1216.371365023805" y="269.5885493045839" as="targetPoint" />
          </mxGeometry>
        </mxCell>
        <mxCell id="qNEX18z2DEx4JnHS-INu-98" value="Fee" style="ellipse;shape=doubleEllipse;margin=3;whiteSpace=wrap;html=1;align=center;fontSize=24;" vertex="1" parent="1">
          <mxGeometry x="1210" y="240" width="120" height="60" as="geometry" />
        </mxCell>
        <mxCell id="qNEX18z2DEx4JnHS-INu-99" value="Amount" style="ellipse;whiteSpace=wrap;html=1;align=center;fontSize=24;" vertex="1" parent="1">
          <mxGeometry x="1350" y="400" width="120" height="50" as="geometry" />
        </mxCell>
        <mxCell id="qNEX18z2DEx4JnHS-INu-100" value="" style="endArrow=none;html=1;rounded=0;fontSize=24;exitX=0.35;exitY=0.02;exitDx=0;exitDy=0;entryX=0.708;entryY=0.967;entryDx=0;entryDy=0;entryPerimeter=0;exitPerimeter=0;" edge="1" parent="1" source="qNEX18z2DEx4JnHS-INu-99" target="qNEX18z2DEx4JnHS-INu-98">
          <mxGeometry relative="1" as="geometry">
            <mxPoint x="1010" y="220" as="sourcePoint" />
            <mxPoint x="1090" y="200" as="targetPoint" />
          </mxGeometry>
        </mxCell>
        <mxCell id="qNEX18z2DEx4JnHS-INu-101" value="Recieptno" style="ellipse;whiteSpace=wrap;html=1;align=center;fontSize=24;" vertex="1" parent="1">
          <mxGeometry x="1220" y="405" width="120" height="50" as="geometry" />
        </mxCell>
        <mxCell id="qNEX18z2DEx4JnHS-INu-102" value="" style="endArrow=none;html=1;rounded=0;fontSize=24;exitX=0.45;exitY=-0.02;exitDx=0;exitDy=0;exitPerimeter=0;" edge="1" parent="1" source="qNEX18z2DEx4JnHS-INu-101" target="qNEX18z2DEx4JnHS-INu-98">
          <mxGeometry relative="1" as="geometry">
            <mxPoint x="1190" y="505" as="sourcePoint" />
            <mxPoint x="1270" y="485" as="targetPoint" />
          </mxGeometry>
        </mxCell>
        <mxCell id="qNEX18z2DEx4JnHS-INu-103" value="Has" style="shape=rhombus;perimeter=rhombusPerimeter;whiteSpace=wrap;html=1;align=center;fontSize=24;" vertex="1" parent="1">
          <mxGeometry x="660" y="320" width="120" height="60" as="geometry" />
        </mxCell>
        <mxCell id="qNEX18z2DEx4JnHS-INu-104" value="" style="endArrow=none;html=1;rounded=0;fontSize=24;entryX=0.882;entryY=-0.06;entryDx=0;entryDy=0;entryPerimeter=0;exitX=0;exitY=0.5;exitDx=0;exitDy=0;" edge="1" parent="1" source="qNEX18z2DEx4JnHS-INu-103" target="qNEX18z2DEx4JnHS-INu-15">
          <mxGeometry relative="1" as="geometry">
            <mxPoint x="590" y="330" as="sourcePoint" />
            <mxPoint x="750" y="330" as="targetPoint" />
          </mxGeometry>
        </mxCell>
        <mxCell id="qNEX18z2DEx4JnHS-INu-105" value="1" style="resizable=0;html=1;align=right;verticalAlign=bottom;fontSize=24;" connectable="0" vertex="1" parent="qNEX18z2DEx4JnHS-INu-104">
          <mxGeometry x="1" relative="1" as="geometry" />
        </mxCell>
        <mxCell id="qNEX18z2DEx4JnHS-INu-106" value="" style="endArrow=none;html=1;rounded=0;fontSize=24;exitX=1;exitY=0.5;exitDx=0;exitDy=0;entryX=0;entryY=1;entryDx=0;entryDy=0;" edge="1" parent="1" source="qNEX18z2DEx4JnHS-INu-103" target="qNEX18z2DEx4JnHS-INu-88">
          <mxGeometry relative="1" as="geometry">
            <mxPoint x="590" y="330" as="sourcePoint" />
            <mxPoint x="1030" y="260" as="targetPoint" />
          </mxGeometry>
        </mxCell>
        <mxCell id="qNEX18z2DEx4JnHS-INu-107" value="1" style="resizable=0;html=1;align=right;verticalAlign=bottom;fontSize=24;" connectable="0" vertex="1" parent="qNEX18z2DEx4JnHS-INu-106">
          <mxGeometry x="1" relative="1" as="geometry" />
        </mxCell>
        <mxCell id="qNEX18z2DEx4JnHS-INu-108" value="Takes" style="shape=rhombus;perimeter=rhombusPerimeter;whiteSpace=wrap;html=1;align=center;fontSize=24;" vertex="1" parent="1">
          <mxGeometry x="700" y="50" width="120" height="60" as="geometry" />
        </mxCell>
        <mxCell id="qNEX18z2DEx4JnHS-INu-109" value="" style="endArrow=none;html=1;rounded=0;fontSize=24;exitX=1;exitY=0.5;exitDx=0;exitDy=0;entryX=0.5;entryY=1;entryDx=0;entryDy=0;" edge="1" parent="1" source="qNEX18z2DEx4JnHS-INu-1" target="qNEX18z2DEx4JnHS-INu-108">
          <mxGeometry relative="1" as="geometry">
            <mxPoint x="590" y="80" as="sourcePoint" />
            <mxPoint x="750" y="80" as="targetPoint" />
            <Array as="points">
              <mxPoint x="680" y="180" />
            </Array>
          </mxGeometry>
        </mxCell>
        <mxCell id="qNEX18z2DEx4JnHS-INu-110" value="1" style="resizable=0;html=1;align=right;verticalAlign=bottom;fontSize=24;" connectable="0" vertex="1" parent="qNEX18z2DEx4JnHS-INu-109">
          <mxGeometry x="1" relative="1" as="geometry">
            <mxPoint x="-270" y="130" as="offset" />
          </mxGeometry>
        </mxCell>
        <mxCell id="qNEX18z2DEx4JnHS-INu-111" value="" style="endArrow=none;html=1;rounded=0;fontSize=24;exitX=1;exitY=0.5;exitDx=0;exitDy=0;entryX=0;entryY=0;entryDx=0;entryDy=0;" edge="1" parent="1" source="qNEX18z2DEx4JnHS-INu-108" target="qNEX18z2DEx4JnHS-INu-88">
          <mxGeometry relative="1" as="geometry">
            <mxPoint x="590" y="80" as="sourcePoint" />
            <mxPoint x="750" y="80" as="targetPoint" />
          </mxGeometry>
        </mxCell>
        <mxCell id="qNEX18z2DEx4JnHS-INu-112" value="1" style="resizable=0;html=1;align=right;verticalAlign=bottom;fontSize=24;" connectable="0" vertex="1" parent="qNEX18z2DEx4JnHS-INu-111">
          <mxGeometry x="1" relative="1" as="geometry" />
        </mxCell>
        <mxCell id="qNEX18z2DEx4JnHS-INu-113" value="Libraries" style="shape=ext;margin=3;double=1;whiteSpace=wrap;html=1;align=center;fontSize=24;" vertex="1" parent="1">
          <mxGeometry x="252.5" y="1250.08" width="165" height="70" as="geometry" />
        </mxCell>
        <mxCell id="qNEX18z2DEx4JnHS-INu-114" value="" style="endArrow=none;html=1;rounded=0;fontSize=24;exitX=0.984;exitY=0.354;exitDx=0;exitDy=0;exitPerimeter=0;" edge="1" parent="1" source="qNEX18z2DEx4JnHS-INu-115" target="qNEX18z2DEx4JnHS-INu-113">
          <mxGeometry relative="1" as="geometry">
            <mxPoint x="230" y="1170.08" as="sourcePoint" />
            <mxPoint x="279.9999999999998" y="1205.08" as="targetPoint" />
          </mxGeometry>
        </mxCell>
        <mxCell id="qNEX18z2DEx4JnHS-INu-115" value="LibraryID" style="ellipse;whiteSpace=wrap;html=1;align=center;fontStyle=4;fontSize=24;" vertex="1" parent="1">
          <mxGeometry x="100" y="1310" width="120" height="70" as="geometry" />
        </mxCell>
        <mxCell id="qNEX18z2DEx4JnHS-INu-116" value="Name" style="ellipse;whiteSpace=wrap;html=1;align=center;fontSize=24;" vertex="1" parent="1">
          <mxGeometry x="240" y="1380" width="120" height="50" as="geometry" />
        </mxCell>
        <mxCell id="qNEX18z2DEx4JnHS-INu-117" value="Location" style="ellipse;whiteSpace=wrap;html=1;align=center;fontSize=24;" vertex="1" parent="1">
          <mxGeometry x="390" y="1370" width="180" height="60" as="geometry" />
        </mxCell>
        <mxCell id="qNEX18z2DEx4JnHS-INu-118" value="Email" style="ellipse;whiteSpace=wrap;html=1;align=center;fontSize=24;" vertex="1" parent="1">
          <mxGeometry x="490" y="1310" width="130" height="50" as="geometry" />
        </mxCell>
        <mxCell id="qNEX18z2DEx4JnHS-INu-119" value="" style="endArrow=none;html=1;rounded=0;fontSize=24;exitX=0.5;exitY=0;exitDx=0;exitDy=0;entryX=0.383;entryY=1.013;entryDx=0;entryDy=0;entryPerimeter=0;" edge="1" parent="1" source="qNEX18z2DEx4JnHS-INu-116" target="qNEX18z2DEx4JnHS-INu-113">
          <mxGeometry relative="1" as="geometry">
            <mxPoint x="250" y="1200.08" as="sourcePoint" />
            <mxPoint x="335" y="1180" as="targetPoint" />
          </mxGeometry>
        </mxCell>
        <mxCell id="qNEX18z2DEx4JnHS-INu-120" value="" style="endArrow=none;html=1;rounded=0;fontSize=24;exitX=0.75;exitY=1;exitDx=0;exitDy=0;" edge="1" parent="1" source="qNEX18z2DEx4JnHS-INu-113" target="qNEX18z2DEx4JnHS-INu-117">
          <mxGeometry relative="1" as="geometry">
            <mxPoint x="390" y="1220" as="sourcePoint" />
            <mxPoint x="410" y="1200.08" as="targetPoint" />
          </mxGeometry>
        </mxCell>
        <mxCell id="qNEX18z2DEx4JnHS-INu-121" value="" style="endArrow=none;html=1;rounded=0;fontSize=24;entryX=0.062;entryY=0.74;entryDx=0;entryDy=0;entryPerimeter=0;exitX=1;exitY=0.75;exitDx=0;exitDy=0;" edge="1" parent="1" source="qNEX18z2DEx4JnHS-INu-113" target="qNEX18z2DEx4JnHS-INu-118">
          <mxGeometry relative="1" as="geometry">
            <mxPoint x="390" y="1250" as="sourcePoint" />
            <mxPoint x="410" y="1200.08" as="targetPoint" />
          </mxGeometry>
        </mxCell>
        <mxCell id="qNEX18z2DEx4JnHS-INu-122" value="Has" style="shape=rhombus;perimeter=rhombusPerimeter;whiteSpace=wrap;html=1;align=center;fontSize=24;" vertex="1" parent="1">
          <mxGeometry x="260" y="1105.08" width="117.5" height="89.92" as="geometry" />
        </mxCell>
        <mxCell id="qNEX18z2DEx4JnHS-INu-123" value="" style="endArrow=none;html=1;rounded=0;fontSize=24;exitX=0.25;exitY=1;exitDx=0;exitDy=0;entryX=0.5;entryY=0;entryDx=0;entryDy=0;" edge="1" parent="1" source="qNEX18z2DEx4JnHS-INu-43" target="qNEX18z2DEx4JnHS-INu-122">
          <mxGeometry relative="1" as="geometry">
            <mxPoint x="550" y="1120" as="sourcePoint" />
            <mxPoint x="710" y="1120" as="targetPoint" />
            <Array as="points">
              <mxPoint x="300" y="1050" />
            </Array>
          </mxGeometry>
        </mxCell>
        <mxCell id="qNEX18z2DEx4JnHS-INu-124" value="1" style="resizable=0;html=1;align=right;verticalAlign=bottom;fontSize=24;" connectable="0" vertex="1" parent="qNEX18z2DEx4JnHS-INu-123">
          <mxGeometry x="1" relative="1" as="geometry">
            <mxPoint x="-9" y="5" as="offset" />
          </mxGeometry>
        </mxCell>
        <mxCell id="qNEX18z2DEx4JnHS-INu-125" value="" style="endArrow=none;html=1;rounded=0;fontSize=24;exitX=0.5;exitY=1;exitDx=0;exitDy=0;entryX=0.412;entryY=0.018;entryDx=0;entryDy=0;entryPerimeter=0;" edge="1" parent="1" source="qNEX18z2DEx4JnHS-INu-122" target="qNEX18z2DEx4JnHS-INu-113">
          <mxGeometry relative="1" as="geometry">
            <mxPoint x="550" y="1200" as="sourcePoint" />
            <mxPoint x="710" y="1200" as="targetPoint" />
          </mxGeometry>
        </mxCell>
        <mxCell id="qNEX18z2DEx4JnHS-INu-126" value="1" style="resizable=0;html=1;align=right;verticalAlign=bottom;fontSize=24;" connectable="0" vertex="1" parent="qNEX18z2DEx4JnHS-INu-125">
          <mxGeometry x="1" relative="1" as="geometry" />
        </mxCell>
        <mxCell id="qNEX18z2DEx4JnHS-INu-127" value="Certification" style="whiteSpace=wrap;html=1;align=center;fontSize=24;" vertex="1" parent="1">
          <mxGeometry x="1320" y="645" width="150" height="65" as="geometry" />
        </mxCell>
        <mxCell id="qNEX18z2DEx4JnHS-INu-128" value="" style="endArrow=none;html=1;rounded=0;fontSize=24;entryX=0.5;entryY=1;entryDx=0;entryDy=0;" edge="1" parent="1" source="qNEX18z2DEx4JnHS-INu-129" target="qNEX18z2DEx4JnHS-INu-127">
          <mxGeometry relative="1" as="geometry">
            <mxPoint x="1270" y="635" as="sourcePoint" />
            <mxPoint x="1450" y="665" as="targetPoint" />
          </mxGeometry>
        </mxCell>
        <mxCell id="qNEX18z2DEx4JnHS-INu-129" value="CertID" style="ellipse;whiteSpace=wrap;html=1;align=center;fontStyle=4;fontSize=24;" vertex="1" parent="1">
          <mxGeometry x="1360" y="770" width="100" height="70" as="geometry" />
        </mxCell>
        <mxCell id="qNEX18z2DEx4JnHS-INu-130" value="Name" style="ellipse;whiteSpace=wrap;html=1;align=center;fontSize=24;" vertex="1" parent="1">
          <mxGeometry x="1350" y="560" width="120" height="50" as="geometry" />
        </mxCell>
        <mxCell id="qNEX18z2DEx4JnHS-INu-131" value="Syllabus" style="ellipse;whiteSpace=wrap;html=1;align=center;fontSize=24;" vertex="1" parent="1">
          <mxGeometry x="1530" y="670" width="160" height="60" as="geometry" />
        </mxCell>
        <mxCell id="qNEX18z2DEx4JnHS-INu-132" value="criteria" style="ellipse;whiteSpace=wrap;html=1;align=center;fontSize=24;" vertex="1" parent="1">
          <mxGeometry x="1530" y="585" width="130" height="50" as="geometry" />
        </mxCell>
        <mxCell id="qNEX18z2DEx4JnHS-INu-133" value="" style="endArrow=none;html=1;rounded=0;fontSize=24;exitX=0.5;exitY=1;exitDx=0;exitDy=0;entryX=0.5;entryY=0;entryDx=0;entryDy=0;" edge="1" parent="1" source="qNEX18z2DEx4JnHS-INu-130" target="qNEX18z2DEx4JnHS-INu-127">
          <mxGeometry relative="1" as="geometry">
            <mxPoint x="1290" y="665" as="sourcePoint" />
            <mxPoint x="1450" y="665" as="targetPoint" />
          </mxGeometry>
        </mxCell>
        <mxCell id="qNEX18z2DEx4JnHS-INu-134" value="" style="endArrow=none;html=1;rounded=0;fontSize=24;exitX=1;exitY=0.75;exitDx=0;exitDy=0;" edge="1" parent="1" source="qNEX18z2DEx4JnHS-INu-127" target="qNEX18z2DEx4JnHS-INu-131">
          <mxGeometry relative="1" as="geometry">
            <mxPoint x="1290" y="665" as="sourcePoint" />
            <mxPoint x="1450" y="665" as="targetPoint" />
          </mxGeometry>
        </mxCell>
        <mxCell id="qNEX18z2DEx4JnHS-INu-135" value="" style="endArrow=none;html=1;rounded=0;fontSize=24;exitX=1;exitY=0.5;exitDx=0;exitDy=0;entryX=0.062;entryY=0.74;entryDx=0;entryDy=0;entryPerimeter=0;" edge="1" parent="1" source="qNEX18z2DEx4JnHS-INu-127" target="qNEX18z2DEx4JnHS-INu-132">
          <mxGeometry relative="1" as="geometry">
            <mxPoint x="1290" y="665" as="sourcePoint" />
            <mxPoint x="1450" y="665" as="targetPoint" />
          </mxGeometry>
        </mxCell>
        <mxCell id="qNEX18z2DEx4JnHS-INu-136" value="Expiry" style="ellipse;whiteSpace=wrap;html=1;align=center;dashed=1;fontSize=24;" vertex="1" parent="1">
          <mxGeometry x="1470" y="765" width="120" height="50" as="geometry" />
        </mxCell>
        <mxCell id="qNEX18z2DEx4JnHS-INu-137" style="edgeStyle=orthogonalEdgeStyle;rounded=0;orthogonalLoop=1;jettySize=auto;html=1;exitX=0.5;exitY=1;exitDx=0;exitDy=0;fontSize=24;" edge="1" parent="1" source="qNEX18z2DEx4JnHS-INu-136" target="qNEX18z2DEx4JnHS-INu-136">
          <mxGeometry relative="1" as="geometry" />
        </mxCell>
        <mxCell id="qNEX18z2DEx4JnHS-INu-138" value="" style="endArrow=none;html=1;rounded=0;fontSize=24;entryX=0.5;entryY=0;entryDx=0;entryDy=0;exitX=0.807;exitY=1;exitDx=0;exitDy=0;exitPerimeter=0;" edge="1" parent="1" source="qNEX18z2DEx4JnHS-INu-127" target="qNEX18z2DEx4JnHS-INu-136">
          <mxGeometry relative="1" as="geometry">
            <mxPoint x="1240" y="720" as="sourcePoint" />
            <mxPoint x="1400" y="720" as="targetPoint" />
          </mxGeometry>
        </mxCell>
        <mxCell id="qNEX18z2DEx4JnHS-INu-139" value="Gets" style="shape=rhombus;perimeter=rhombusPerimeter;whiteSpace=wrap;html=1;align=center;fontSize=24;" vertex="1" parent="1">
          <mxGeometry x="1510" y="250" width="120" height="60" as="geometry" />
        </mxCell>
        <mxCell id="qNEX18z2DEx4JnHS-INu-140" value="" style="endArrow=none;html=1;rounded=0;fontSize=24;entryX=0.75;entryY=0;entryDx=0;entryDy=0;exitX=0.5;exitY=0;exitDx=0;exitDy=0;" edge="1" parent="1" source="qNEX18z2DEx4JnHS-INu-139" target="qNEX18z2DEx4JnHS-INu-1">
          <mxGeometry relative="1" as="geometry">
            <mxPoint x="740" y="290" as="sourcePoint" />
            <mxPoint x="900" y="290" as="targetPoint" />
            <Array as="points">
              <mxPoint x="1400" y="40" />
              <mxPoint x="660" y="20" />
            </Array>
          </mxGeometry>
        </mxCell>
        <mxCell id="qNEX18z2DEx4JnHS-INu-141" value="1" style="resizable=0;html=1;align=right;verticalAlign=bottom;fontSize=24;" connectable="0" vertex="1" parent="qNEX18z2DEx4JnHS-INu-140">
          <mxGeometry x="1" relative="1" as="geometry" />
        </mxCell>
        <mxCell id="qNEX18z2DEx4JnHS-INu-142" value="" style="endArrow=none;html=1;rounded=0;fontSize=24;entryX=0.887;entryY=-0.015;entryDx=0;entryDy=0;entryPerimeter=0;exitX=0.5;exitY=1;exitDx=0;exitDy=0;" edge="1" parent="1" source="qNEX18z2DEx4JnHS-INu-139" target="qNEX18z2DEx4JnHS-INu-127">
          <mxGeometry relative="1" as="geometry">
            <mxPoint x="740" y="290" as="sourcePoint" />
            <mxPoint x="900" y="290" as="targetPoint" />
            <Array as="points">
              <mxPoint x="1540" y="510" />
            </Array>
          </mxGeometry>
        </mxCell>
        <mxCell id="qNEX18z2DEx4JnHS-INu-143" value="N" style="resizable=0;html=1;align=right;verticalAlign=bottom;fontSize=24;" connectable="0" vertex="1" parent="qNEX18z2DEx4JnHS-INu-142">
          <mxGeometry x="1" relative="1" as="geometry" />
        </mxCell>
        <mxCell id="qNEX18z2DEx4JnHS-INu-144" value="Has" style="shape=rhombus;perimeter=rhombusPerimeter;whiteSpace=wrap;html=1;align=center;fontSize=24;" vertex="1" parent="1">
          <mxGeometry x="1070" y="650" width="100" height="60" as="geometry" />
        </mxCell>
        <mxCell id="qNEX18z2DEx4JnHS-INu-145" value="" style="endArrow=none;html=1;rounded=0;fontSize=24;entryX=0;entryY=0.5;entryDx=0;entryDy=0;exitX=0.355;exitY=1.02;exitDx=0;exitDy=0;exitPerimeter=0;" edge="1" parent="1" source="qNEX18z2DEx4JnHS-INu-29" target="qNEX18z2DEx4JnHS-INu-127">
          <mxGeometry relative="1" as="geometry">
            <mxPoint x="740" y="500" as="sourcePoint" />
            <mxPoint x="900" y="500" as="targetPoint" />
            <Array as="points">
              <mxPoint x="810" y="610" />
              <mxPoint x="1000" y="720" />
              <mxPoint x="1070" y="680" />
              <mxPoint x="1120" y="710" />
            </Array>
          </mxGeometry>
        </mxCell>
        <mxCell id="qNEX18z2DEx4JnHS-INu-146" value="M" style="resizable=0;html=1;align=left;verticalAlign=bottom;fontSize=24;" connectable="0" vertex="1" parent="qNEX18z2DEx4JnHS-INu-145">
          <mxGeometry x="-1" relative="1" as="geometry">
            <mxPoint y="34" as="offset" />
          </mxGeometry>
        </mxCell>
        <mxCell id="qNEX18z2DEx4JnHS-INu-147" value="N" style="resizable=0;html=1;align=right;verticalAlign=bottom;fontSize=24;" connectable="0" vertex="1" parent="qNEX18z2DEx4JnHS-INu-145">
          <mxGeometry x="1" relative="1" as="geometry" />
        </mxCell>
        <mxCell id="qNEX18z2DEx4JnHS-INu-148" value="Has" style="shape=rhombus;perimeter=rhombusPerimeter;whiteSpace=wrap;html=1;align=center;fontSize=24;" vertex="1" parent="1">
          <mxGeometry x="940" y="996" width="93" height="62" as="geometry" />
        </mxCell>
        <mxCell id="qNEX18z2DEx4JnHS-INu-149" value="" style="endArrow=none;html=1;rounded=0;exitX=1;exitY=0.5;exitDx=0;exitDy=0;entryX=0.807;entryY=1;entryDx=0;entryDy=0;entryPerimeter=0;" edge="1" parent="1" source="qNEX18z2DEx4JnHS-INu-148" target="qNEX18z2DEx4JnHS-INu-53">
          <mxGeometry relative="1" as="geometry">
            <mxPoint x="1110" y="953" as="sourcePoint" />
            <mxPoint x="1270" y="953" as="targetPoint" />
            <Array as="points">
              <mxPoint x="1130" y="964" />
            </Array>
          </mxGeometry>
        </mxCell>
        <mxCell id="qNEX18z2DEx4JnHS-INu-150" value="1" style="resizable=0;html=1;align=right;verticalAlign=bottom;" connectable="0" vertex="1" parent="qNEX18z2DEx4JnHS-INu-149">
          <mxGeometry x="1" relative="1" as="geometry" />
        </mxCell>
        <mxCell id="qNEX18z2DEx4JnHS-INu-151" value="" style="endArrow=none;html=1;rounded=0;exitX=0.5;exitY=1;exitDx=0;exitDy=0;entryX=0.25;entryY=0;entryDx=0;entryDy=0;" edge="1" parent="1" source="qNEX18z2DEx4JnHS-INu-148" target="qNEX18z2DEx4JnHS-INu-87">
          <mxGeometry relative="1" as="geometry">
            <mxPoint x="1110" y="953" as="sourcePoint" />
            <mxPoint x="980" y="1104" as="targetPoint" />
          </mxGeometry>
        </mxCell>
        <mxCell id="qNEX18z2DEx4JnHS-INu-153" value="1" style="resizable=0;html=1;align=right;verticalAlign=bottom;" connectable="0" vertex="1" parent="1">
          <mxGeometry x="1000.0035057078403" y="1107.9991709939966" as="geometry" />
        </mxCell>
        <mxCell id="qNEX18z2DEx4JnHS-INu-155" value="DeptID" style="ellipse;whiteSpace=wrap;html=1;align=center;fontSize=24;" vertex="1" parent="1">
          <mxGeometry x="466" y="1240" width="120" height="50" as="geometry" />
        </mxCell>
        <mxCell id="qNEX18z2DEx4JnHS-INu-156" value="" style="endArrow=none;html=1;rounded=0;fontSize=24;entryX=1;entryY=0.25;entryDx=0;entryDy=0;exitX=0;exitY=0.5;exitDx=0;exitDy=0;" edge="1" parent="1" source="qNEX18z2DEx4JnHS-INu-155" target="qNEX18z2DEx4JnHS-INu-113">
          <mxGeometry relative="1" as="geometry">
            <mxPoint x="536" y="1285" as="sourcePoint" />
            <mxPoint x="516" y="1165" as="targetPoint" />
          </mxGeometry>
        </mxCell>
        <mxCell id="qNEX18z2DEx4JnHS-INu-158" value="FacultyID" style="ellipse;whiteSpace=wrap;html=1;align=center;fontSize=24;" vertex="1" parent="1">
          <mxGeometry x="1194.74" y="1060" width="120" height="50" as="geometry" />
        </mxCell>
        <mxCell id="qNEX18z2DEx4JnHS-INu-159" value="" style="endArrow=none;html=1;rounded=0;fontSize=24;entryX=1;entryY=0.25;entryDx=0;entryDy=0;exitX=0;exitY=0.5;exitDx=0;exitDy=0;" edge="1" parent="1" source="qNEX18z2DEx4JnHS-INu-158" target="qNEX18z2DEx4JnHS-INu-87">
          <mxGeometry relative="1" as="geometry">
            <mxPoint x="1264.74" y="1105" as="sourcePoint" />
            <mxPoint x="1244.74" y="985" as="targetPoint" />
          </mxGeometry>
        </mxCell>
        <mxCell id="qNEX18z2DEx4JnHS-INu-161" value="couID" style="ellipse;whiteSpace=wrap;html=1;align=center;fontSize=24;" vertex="1" parent="1">
          <mxGeometry x="1090" y="738" width="120" height="50" as="geometry" />
        </mxCell>
        <mxCell id="qNEX18z2DEx4JnHS-INu-162" value="" style="endArrow=none;html=1;rounded=0;fontSize=24;entryX=1;entryY=0.25;entryDx=0;entryDy=0;exitX=0.392;exitY=0.967;exitDx=0;exitDy=0;exitPerimeter=0;" edge="1" parent="1" source="qNEX18z2DEx4JnHS-INu-161" target="qNEX18z2DEx4JnHS-INu-53">
          <mxGeometry relative="1" as="geometry">
            <mxPoint x="1140" y="790" as="sourcePoint" />
            <mxPoint x="1120" y="670" as="targetPoint" />
          </mxGeometry>
        </mxCell>
        <mxCell id="qNEX18z2DEx4JnHS-INu-164" value="CourseID" style="ellipse;whiteSpace=wrap;html=1;align=center;fontSize=24;" vertex="1" parent="1">
          <mxGeometry x="1252" y="741" width="120" height="50" as="geometry" />
        </mxCell>
        <mxCell id="qNEX18z2DEx4JnHS-INu-165" value="" style="endArrow=none;html=1;rounded=0;fontSize=24;entryX=0.25;entryY=1;entryDx=0;entryDy=0;exitX=1;exitY=0;exitDx=0;exitDy=0;" edge="1" parent="1" source="qNEX18z2DEx4JnHS-INu-164" target="qNEX18z2DEx4JnHS-INu-127">
          <mxGeometry relative="1" as="geometry">
            <mxPoint x="1290" y="820.5" as="sourcePoint" />
            <mxPoint x="1270" y="700.5" as="targetPoint" />
          </mxGeometry>
        </mxCell>
      </root>
    </mxGraphModel>
  </diagram>
  <diagram id="XxM3KCo_HjbZ8yG92j3R" name="Page-2">
    <mxGraphModel dx="3305" dy="1489" grid="0" gridSize="10" guides="1" tooltips="1" connect="1" arrows="1" fold="1" page="1" pageScale="1" pageWidth="4681" pageHeight="3300" math="0" shadow="0">
      <root>
        <mxCell id="0" />
        <mxCell id="1" parent="0" />
        <mxCell id="FZwdTxth3LpQSzIBZDMU-52" value="Student" style="whiteSpace=wrap;html=1;align=center;fontSize=24;" vertex="1" parent="1">
          <mxGeometry x="370" y="210" width="110" height="50" as="geometry" />
        </mxCell>
        <mxCell id="FZwdTxth3LpQSzIBZDMU-53" value="" style="endArrow=none;html=1;rounded=0;fontSize=24;entryX=0;entryY=0.5;entryDx=0;entryDy=0;exitX=0.942;exitY=0.757;exitDx=0;exitDy=0;exitPerimeter=0;" edge="1" parent="1" source="FZwdTxth3LpQSzIBZDMU-54" target="FZwdTxth3LpQSzIBZDMU-52">
          <mxGeometry relative="1" as="geometry">
            <mxPoint x="320" y="200" as="sourcePoint" />
            <mxPoint x="500" y="230" as="targetPoint" />
          </mxGeometry>
        </mxCell>
        <mxCell id="FZwdTxth3LpQSzIBZDMU-54" value="StudID" style="ellipse;whiteSpace=wrap;html=1;align=center;fontStyle=4;fontSize=24;" vertex="1" parent="1">
          <mxGeometry x="230" y="170" width="100" height="70" as="geometry" />
        </mxCell>
        <mxCell id="FZwdTxth3LpQSzIBZDMU-55" value="Name" style="ellipse;whiteSpace=wrap;html=1;align=center;fontSize=24;" vertex="1" parent="1">
          <mxGeometry x="370" y="130" width="120" height="50" as="geometry" />
        </mxCell>
        <mxCell id="FZwdTxth3LpQSzIBZDMU-56" value="ProgramID" style="ellipse;whiteSpace=wrap;html=1;align=center;fontSize=24;" vertex="1" parent="1">
          <mxGeometry x="510" y="220" width="160" height="60" as="geometry" />
        </mxCell>
        <mxCell id="FZwdTxth3LpQSzIBZDMU-57" value="Email" style="ellipse;whiteSpace=wrap;html=1;align=center;fontSize=24;" vertex="1" parent="1">
          <mxGeometry x="520" y="140" width="130" height="50" as="geometry" />
        </mxCell>
        <mxCell id="FZwdTxth3LpQSzIBZDMU-58" value="" style="endArrow=none;html=1;rounded=0;fontSize=24;exitX=0.5;exitY=1;exitDx=0;exitDy=0;entryX=0.5;entryY=0;entryDx=0;entryDy=0;" edge="1" parent="1" source="FZwdTxth3LpQSzIBZDMU-55" target="FZwdTxth3LpQSzIBZDMU-52">
          <mxGeometry relative="1" as="geometry">
            <mxPoint x="340" y="230" as="sourcePoint" />
            <mxPoint x="500" y="230" as="targetPoint" />
          </mxGeometry>
        </mxCell>
        <mxCell id="FZwdTxth3LpQSzIBZDMU-59" value="" style="endArrow=none;html=1;rounded=0;fontSize=24;exitX=1;exitY=0.75;exitDx=0;exitDy=0;" edge="1" parent="1" source="FZwdTxth3LpQSzIBZDMU-52" target="FZwdTxth3LpQSzIBZDMU-56">
          <mxGeometry relative="1" as="geometry">
            <mxPoint x="340" y="230" as="sourcePoint" />
            <mxPoint x="500" y="230" as="targetPoint" />
          </mxGeometry>
        </mxCell>
        <mxCell id="FZwdTxth3LpQSzIBZDMU-60" value="" style="endArrow=none;html=1;rounded=0;fontSize=24;exitX=1;exitY=0;exitDx=0;exitDy=0;entryX=0.062;entryY=0.74;entryDx=0;entryDy=0;entryPerimeter=0;" edge="1" parent="1" source="FZwdTxth3LpQSzIBZDMU-52" target="FZwdTxth3LpQSzIBZDMU-57">
          <mxGeometry relative="1" as="geometry">
            <mxPoint x="340" y="230" as="sourcePoint" />
            <mxPoint x="500" y="230" as="targetPoint" />
          </mxGeometry>
        </mxCell>
        <mxCell id="FZwdTxth3LpQSzIBZDMU-61" value="Erolls" style="shape=rhombus;perimeter=rhombusPerimeter;whiteSpace=wrap;html=1;align=center;fontSize=24;" vertex="1" parent="1">
          <mxGeometry x="360" y="340" width="120" height="60" as="geometry" />
        </mxCell>
        <mxCell id="FZwdTxth3LpQSzIBZDMU-62" value="" style="endArrow=none;html=1;rounded=0;fontSize=24;exitX=0.5;exitY=1;exitDx=0;exitDy=0;entryX=0.5;entryY=0;entryDx=0;entryDy=0;" edge="1" parent="1" source="FZwdTxth3LpQSzIBZDMU-52" target="FZwdTxth3LpQSzIBZDMU-61">
          <mxGeometry relative="1" as="geometry">
            <mxPoint x="570" y="440" as="sourcePoint" />
            <mxPoint x="576.03" y="547" as="targetPoint" />
          </mxGeometry>
        </mxCell>
        <mxCell id="FZwdTxth3LpQSzIBZDMU-63" value="M" style="resizable=0;html=1;align=left;verticalAlign=bottom;fontSize=24;" connectable="0" vertex="1" parent="FZwdTxth3LpQSzIBZDMU-62">
          <mxGeometry x="-1" relative="1" as="geometry">
            <mxPoint y="30" as="offset" />
          </mxGeometry>
        </mxCell>
        <mxCell id="FZwdTxth3LpQSzIBZDMU-64" value="" style="endArrow=none;html=1;rounded=0;fontSize=24;exitX=0.5;exitY=1;exitDx=0;exitDy=0;entryX=0.5;entryY=0;entryDx=0;entryDy=0;" edge="1" parent="1" source="FZwdTxth3LpQSzIBZDMU-61" target="FZwdTxth3LpQSzIBZDMU-66">
          <mxGeometry relative="1" as="geometry">
            <mxPoint x="340" y="370" as="sourcePoint" />
            <mxPoint x="415" y="460" as="targetPoint" />
          </mxGeometry>
        </mxCell>
        <mxCell id="FZwdTxth3LpQSzIBZDMU-65" value="N" style="resizable=0;html=1;align=right;verticalAlign=bottom;fontSize=24;" connectable="0" vertex="1" parent="FZwdTxth3LpQSzIBZDMU-64">
          <mxGeometry x="1" relative="1" as="geometry" />
        </mxCell>
        <mxCell id="FZwdTxth3LpQSzIBZDMU-66" value="Program" style="whiteSpace=wrap;html=1;align=center;fontSize=24;" vertex="1" parent="1">
          <mxGeometry x="365" y="500" width="110" height="50" as="geometry" />
        </mxCell>
        <mxCell id="FZwdTxth3LpQSzIBZDMU-67" value="" style="endArrow=none;html=1;rounded=0;fontSize=24;entryX=0;entryY=0.5;entryDx=0;entryDy=0;exitX=1;exitY=0.5;exitDx=0;exitDy=0;" edge="1" parent="1" source="FZwdTxth3LpQSzIBZDMU-68" target="FZwdTxth3LpQSzIBZDMU-66">
          <mxGeometry relative="1" as="geometry">
            <mxPoint x="320" y="580" as="sourcePoint" />
            <mxPoint x="500" y="610" as="targetPoint" />
          </mxGeometry>
        </mxCell>
        <mxCell id="FZwdTxth3LpQSzIBZDMU-68" value="ProgID" style="ellipse;whiteSpace=wrap;html=1;align=center;fontStyle=4;fontSize=24;" vertex="1" parent="1">
          <mxGeometry x="200" y="540" width="100" height="70" as="geometry" />
        </mxCell>
        <mxCell id="FZwdTxth3LpQSzIBZDMU-69" value="Title" style="ellipse;whiteSpace=wrap;html=1;align=center;fontSize=24;" vertex="1" parent="1">
          <mxGeometry x="260" y="600" width="120" height="50" as="geometry" />
        </mxCell>
        <mxCell id="FZwdTxth3LpQSzIBZDMU-70" value="Descrip" style="ellipse;whiteSpace=wrap;html=1;align=center;fontSize=24;" vertex="1" parent="1">
          <mxGeometry x="425" y="610" width="160" height="60" as="geometry" />
        </mxCell>
        <mxCell id="FZwdTxth3LpQSzIBZDMU-71" value="School" style="ellipse;whiteSpace=wrap;html=1;align=center;fontSize=24;" vertex="1" parent="1">
          <mxGeometry x="510" y="550" width="130" height="50" as="geometry" />
        </mxCell>
        <mxCell id="FZwdTxth3LpQSzIBZDMU-72" value="" style="endArrow=none;html=1;rounded=0;fontSize=24;exitX=0.783;exitY=0.04;exitDx=0;exitDy=0;entryX=0.318;entryY=1.04;entryDx=0;entryDy=0;entryPerimeter=0;exitPerimeter=0;" edge="1" parent="1" source="FZwdTxth3LpQSzIBZDMU-69" target="FZwdTxth3LpQSzIBZDMU-66">
          <mxGeometry relative="1" as="geometry">
            <mxPoint x="340" y="610" as="sourcePoint" />
            <mxPoint x="500" y="610" as="targetPoint" />
          </mxGeometry>
        </mxCell>
        <mxCell id="FZwdTxth3LpQSzIBZDMU-73" value="" style="endArrow=none;html=1;rounded=0;fontSize=24;exitX=0.75;exitY=1;exitDx=0;exitDy=0;" edge="1" parent="1" source="FZwdTxth3LpQSzIBZDMU-66" target="FZwdTxth3LpQSzIBZDMU-70">
          <mxGeometry relative="1" as="geometry">
            <mxPoint x="340" y="610" as="sourcePoint" />
            <mxPoint x="500" y="610" as="targetPoint" />
          </mxGeometry>
        </mxCell>
        <mxCell id="FZwdTxth3LpQSzIBZDMU-74" value="" style="endArrow=none;html=1;rounded=0;fontSize=24;exitX=1;exitY=0.5;exitDx=0;exitDy=0;entryX=0;entryY=0.5;entryDx=0;entryDy=0;" edge="1" parent="1" source="FZwdTxth3LpQSzIBZDMU-66" target="FZwdTxth3LpQSzIBZDMU-71">
          <mxGeometry relative="1" as="geometry">
            <mxPoint x="340" y="610" as="sourcePoint" />
            <mxPoint x="500" y="610" as="targetPoint" />
          </mxGeometry>
        </mxCell>
        <mxCell id="FZwdTxth3LpQSzIBZDMU-75" value="Has" style="shape=rhombus;perimeter=rhombusPerimeter;whiteSpace=wrap;html=1;align=center;fontSize=24;" vertex="1" parent="1">
          <mxGeometry x="600" y="475" width="120" height="60" as="geometry" />
        </mxCell>
        <mxCell id="FZwdTxth3LpQSzIBZDMU-76" value="" style="endArrow=none;html=1;rounded=0;fontSize=24;entryX=1;entryY=0.5;entryDx=0;entryDy=0;exitX=0;exitY=0.5;exitDx=0;exitDy=0;" edge="1" parent="1" source="FZwdTxth3LpQSzIBZDMU-75" target="FZwdTxth3LpQSzIBZDMU-66">
          <mxGeometry relative="1" as="geometry">
            <mxPoint x="340" y="420" as="sourcePoint" />
            <mxPoint x="500" y="420" as="targetPoint" />
          </mxGeometry>
        </mxCell>
        <mxCell id="FZwdTxth3LpQSzIBZDMU-77" value="1" style="resizable=0;html=1;align=right;verticalAlign=bottom;fontSize=24;" connectable="0" vertex="1" parent="FZwdTxth3LpQSzIBZDMU-76">
          <mxGeometry x="1" relative="1" as="geometry">
            <mxPoint x="20" y="5" as="offset" />
          </mxGeometry>
        </mxCell>
        <mxCell id="FZwdTxth3LpQSzIBZDMU-78" value="" style="shape=link;html=1;rounded=0;fontSize=24;exitX=1;exitY=0.5;exitDx=0;exitDy=0;entryX=0;entryY=0.5;entryDx=0;entryDy=0;" edge="1" parent="1" source="FZwdTxth3LpQSzIBZDMU-75" target="FZwdTxth3LpQSzIBZDMU-80">
          <mxGeometry relative="1" as="geometry">
            <mxPoint x="690" y="459.5" as="sourcePoint" />
            <mxPoint x="760" y="460" as="targetPoint" />
          </mxGeometry>
        </mxCell>
        <mxCell id="FZwdTxth3LpQSzIBZDMU-79" value="N" style="resizable=0;html=1;align=right;verticalAlign=bottom;fontSize=24;" connectable="0" vertex="1" parent="FZwdTxth3LpQSzIBZDMU-78">
          <mxGeometry x="1" relative="1" as="geometry" />
        </mxCell>
        <mxCell id="FZwdTxth3LpQSzIBZDMU-80" value="Courses" style="whiteSpace=wrap;html=1;align=center;fontSize=24;" vertex="1" parent="1">
          <mxGeometry x="780" y="435" width="110" height="50" as="geometry" />
        </mxCell>
        <mxCell id="FZwdTxth3LpQSzIBZDMU-81" value="" style="endArrow=none;html=1;rounded=0;fontSize=24;exitX=0.5;exitY=0;exitDx=0;exitDy=0;entryX=0.682;entryY=0.98;entryDx=0;entryDy=0;entryPerimeter=0;" edge="1" parent="1" source="FZwdTxth3LpQSzIBZDMU-82" target="FZwdTxth3LpQSzIBZDMU-80">
          <mxGeometry relative="1" as="geometry">
            <mxPoint x="790" y="370" as="sourcePoint" />
            <mxPoint x="840" y="490" as="targetPoint" />
          </mxGeometry>
        </mxCell>
        <mxCell id="FZwdTxth3LpQSzIBZDMU-82" value="CouID" style="ellipse;whiteSpace=wrap;html=1;align=center;fontStyle=4;fontSize=24;" vertex="1" parent="1">
          <mxGeometry x="840" y="550" width="100" height="70" as="geometry" />
        </mxCell>
        <mxCell id="FZwdTxth3LpQSzIBZDMU-83" value="Name" style="ellipse;whiteSpace=wrap;html=1;align=center;fontSize=24;" vertex="1" parent="1">
          <mxGeometry x="940" y="535" width="120" height="50" as="geometry" />
        </mxCell>
        <mxCell id="FZwdTxth3LpQSzIBZDMU-84" value="ProgramID" style="ellipse;whiteSpace=wrap;html=1;align=center;fontSize=24;" vertex="1" parent="1">
          <mxGeometry x="930" y="460" width="160" height="60" as="geometry" />
        </mxCell>
        <mxCell id="FZwdTxth3LpQSzIBZDMU-85" value="Credit" style="ellipse;whiteSpace=wrap;html=1;align=center;fontSize=24;" vertex="1" parent="1">
          <mxGeometry x="960" y="400" width="130" height="50" as="geometry" />
        </mxCell>
        <mxCell id="FZwdTxth3LpQSzIBZDMU-86" value="" style="endArrow=none;html=1;rounded=0;fontSize=24;entryX=0.855;entryY=0.98;entryDx=0;entryDy=0;exitX=0.25;exitY=0.02;exitDx=0;exitDy=0;exitPerimeter=0;entryPerimeter=0;" edge="1" parent="1" source="FZwdTxth3LpQSzIBZDMU-83" target="FZwdTxth3LpQSzIBZDMU-80">
          <mxGeometry relative="1" as="geometry">
            <mxPoint x="870" y="530" as="sourcePoint" />
            <mxPoint x="970" y="400" as="targetPoint" />
          </mxGeometry>
        </mxCell>
        <mxCell id="FZwdTxth3LpQSzIBZDMU-87" value="" style="endArrow=none;html=1;rounded=0;fontSize=24;exitX=1;exitY=0.75;exitDx=0;exitDy=0;" edge="1" parent="1" source="FZwdTxth3LpQSzIBZDMU-80" target="FZwdTxth3LpQSzIBZDMU-84">
          <mxGeometry relative="1" as="geometry">
            <mxPoint x="810" y="400" as="sourcePoint" />
            <mxPoint x="970" y="400" as="targetPoint" />
          </mxGeometry>
        </mxCell>
        <mxCell id="FZwdTxth3LpQSzIBZDMU-88" value="" style="endArrow=none;html=1;rounded=0;fontSize=24;exitX=1;exitY=0.5;exitDx=0;exitDy=0;entryX=0.062;entryY=0.74;entryDx=0;entryDy=0;entryPerimeter=0;" edge="1" parent="1" source="FZwdTxth3LpQSzIBZDMU-80" target="FZwdTxth3LpQSzIBZDMU-85">
          <mxGeometry relative="1" as="geometry">
            <mxPoint x="810" y="400" as="sourcePoint" />
            <mxPoint x="970" y="400" as="targetPoint" />
          </mxGeometry>
        </mxCell>
        <mxCell id="FZwdTxth3LpQSzIBZDMU-91" value="Offer" style="shape=rhombus;perimeter=rhombusPerimeter;whiteSpace=wrap;html=1;align=center;fontSize=24;" vertex="1" parent="1">
          <mxGeometry x="300" y="730" width="120" height="90" as="geometry" />
        </mxCell>
        <mxCell id="FZwdTxth3LpQSzIBZDMU-95" value="" style="shape=link;html=1;rounded=0;fontSize=24;exitX=0.5;exitY=0;exitDx=0;exitDy=0;entryX=0.5;entryY=1;entryDx=0;entryDy=0;" edge="1" parent="1" source="FZwdTxth3LpQSzIBZDMU-91" target="FZwdTxth3LpQSzIBZDMU-66">
          <mxGeometry relative="1" as="geometry">
            <mxPoint x="680" y="880" as="sourcePoint" />
            <mxPoint x="840" y="880" as="targetPoint" />
          </mxGeometry>
        </mxCell>
        <mxCell id="FZwdTxth3LpQSzIBZDMU-97" value="N" style="resizable=0;html=1;align=right;verticalAlign=bottom;fontSize=24;" connectable="0" vertex="1" parent="1">
          <mxGeometry x="440" y="575" as="geometry" />
        </mxCell>
        <mxCell id="FZwdTxth3LpQSzIBZDMU-100" value="" style="endArrow=none;html=1;rounded=0;fontSize=24;entryX=0.436;entryY=-0.02;entryDx=0;entryDy=0;exitX=0.5;exitY=1;exitDx=0;exitDy=0;entryPerimeter=0;" edge="1" parent="1" source="FZwdTxth3LpQSzIBZDMU-91" target="FZwdTxth3LpQSzIBZDMU-113">
          <mxGeometry relative="1" as="geometry">
            <mxPoint x="680" y="790" as="sourcePoint" />
            <mxPoint x="357.0499999999997" y="881.9799999999998" as="targetPoint" />
          </mxGeometry>
        </mxCell>
        <mxCell id="FZwdTxth3LpQSzIBZDMU-101" value="1" style="resizable=0;html=1;align=right;verticalAlign=bottom;fontSize=24;" connectable="0" vertex="1" parent="FZwdTxth3LpQSzIBZDMU-100">
          <mxGeometry x="1" relative="1" as="geometry">
            <mxPoint x="-10" as="offset" />
          </mxGeometry>
        </mxCell>
        <mxCell id="FZwdTxth3LpQSzIBZDMU-113" value="Department" style="whiteSpace=wrap;html=1;align=center;fontSize=24;" vertex="1" parent="1">
          <mxGeometry x="300" y="880" width="140" height="50" as="geometry" />
        </mxCell>
        <mxCell id="FZwdTxth3LpQSzIBZDMU-114" value="" style="endArrow=none;html=1;rounded=0;fontSize=24;entryX=0;entryY=1;entryDx=0;entryDy=0;exitX=0.5;exitY=0;exitDx=0;exitDy=0;" edge="1" parent="1" source="FZwdTxth3LpQSzIBZDMU-115" target="FZwdTxth3LpQSzIBZDMU-113">
          <mxGeometry relative="1" as="geometry">
            <mxPoint x="310" y="890" as="sourcePoint" />
            <mxPoint x="490" y="920" as="targetPoint" />
          </mxGeometry>
        </mxCell>
        <mxCell id="FZwdTxth3LpQSzIBZDMU-115" value="CouID" style="ellipse;whiteSpace=wrap;html=1;align=center;fontStyle=4;fontSize=24;" vertex="1" parent="1">
          <mxGeometry x="200" y="985" width="100" height="70" as="geometry" />
        </mxCell>
        <mxCell id="FZwdTxth3LpQSzIBZDMU-116" value="Name" style="ellipse;whiteSpace=wrap;html=1;align=center;fontSize=24;" vertex="1" parent="1">
          <mxGeometry x="320" y="1005" width="120" height="50" as="geometry" />
        </mxCell>
        <mxCell id="FZwdTxth3LpQSzIBZDMU-117" value="ProgramID" style="ellipse;whiteSpace=wrap;html=1;align=center;fontSize=24;" vertex="1" parent="1">
          <mxGeometry x="425" y="970" width="160" height="60" as="geometry" />
        </mxCell>
        <mxCell id="FZwdTxth3LpQSzIBZDMU-118" value="Credit" style="ellipse;whiteSpace=wrap;html=1;align=center;fontSize=24;" vertex="1" parent="1">
          <mxGeometry x="480" y="870" width="130" height="50" as="geometry" />
        </mxCell>
        <mxCell id="FZwdTxth3LpQSzIBZDMU-119" value="" style="endArrow=none;html=1;rounded=0;fontSize=24;entryX=0.5;entryY=1;entryDx=0;entryDy=0;exitX=0.25;exitY=0.02;exitDx=0;exitDy=0;exitPerimeter=0;" edge="1" parent="1" source="FZwdTxth3LpQSzIBZDMU-116" target="FZwdTxth3LpQSzIBZDMU-113">
          <mxGeometry relative="1" as="geometry">
            <mxPoint x="390" y="1050" as="sourcePoint" />
            <mxPoint x="490" y="920" as="targetPoint" />
          </mxGeometry>
        </mxCell>
        <mxCell id="FZwdTxth3LpQSzIBZDMU-120" value="" style="endArrow=none;html=1;rounded=0;fontSize=24;exitX=1;exitY=0.75;exitDx=0;exitDy=0;" edge="1" parent="1" source="FZwdTxth3LpQSzIBZDMU-113" target="FZwdTxth3LpQSzIBZDMU-117">
          <mxGeometry relative="1" as="geometry">
            <mxPoint x="330" y="920" as="sourcePoint" />
            <mxPoint x="490" y="920" as="targetPoint" />
          </mxGeometry>
        </mxCell>
        <mxCell id="FZwdTxth3LpQSzIBZDMU-121" value="" style="endArrow=none;html=1;rounded=0;fontSize=24;exitX=1;exitY=0.5;exitDx=0;exitDy=0;entryX=0.062;entryY=0.74;entryDx=0;entryDy=0;entryPerimeter=0;" edge="1" parent="1" source="FZwdTxth3LpQSzIBZDMU-113" target="FZwdTxth3LpQSzIBZDMU-118">
          <mxGeometry relative="1" as="geometry">
            <mxPoint x="330" y="920" as="sourcePoint" />
            <mxPoint x="490" y="920" as="targetPoint" />
          </mxGeometry>
        </mxCell>
        <mxCell id="FZwdTxth3LpQSzIBZDMU-122" value="N" style="resizable=0;html=1;align=right;verticalAlign=bottom;fontSize=24;" connectable="0" vertex="1" parent="1">
          <mxGeometry x="910.0033333333336" y="840" as="geometry" />
        </mxCell>
        <mxCell id="FZwdTxth3LpQSzIBZDMU-123" value="Faculty" style="whiteSpace=wrap;html=1;align=center;fontSize=24;" vertex="1" parent="1">
          <mxGeometry x="920.27" y="810" width="129.73" height="70" as="geometry" />
        </mxCell>
        <mxCell id="FZwdTxth3LpQSzIBZDMU-124" value="" style="endArrow=none;html=1;rounded=0;fontSize=24;entryX=0.409;entryY=1;entryDx=0;entryDy=0;entryPerimeter=0;exitX=0.5;exitY=0;exitDx=0;exitDy=0;" edge="1" parent="1" source="FZwdTxth3LpQSzIBZDMU-125" target="FZwdTxth3LpQSzIBZDMU-123">
          <mxGeometry relative="1" as="geometry">
            <mxPoint x="980.27" y="850" as="sourcePoint" />
            <mxPoint x="1160.27" y="880" as="targetPoint" />
          </mxGeometry>
        </mxCell>
        <mxCell id="FZwdTxth3LpQSzIBZDMU-125" value="FacultyId" style="ellipse;whiteSpace=wrap;html=1;align=center;fontStyle=4;fontSize=24;" vertex="1" parent="1">
          <mxGeometry x="810" y="915" width="150" height="55" as="geometry" />
        </mxCell>
        <mxCell id="FZwdTxth3LpQSzIBZDMU-126" value="Name" style="ellipse;whiteSpace=wrap;html=1;align=center;fontSize=24;" vertex="1" parent="1">
          <mxGeometry x="970" y="925" width="120" height="50" as="geometry" />
        </mxCell>
        <mxCell id="FZwdTxth3LpQSzIBZDMU-127" value="EmailId" style="ellipse;whiteSpace=wrap;html=1;align=center;fontSize=24;" vertex="1" parent="1">
          <mxGeometry x="1110" y="900" width="160" height="60" as="geometry" />
        </mxCell>
        <mxCell id="FZwdTxth3LpQSzIBZDMU-128" value="DepId" style="ellipse;whiteSpace=wrap;html=1;align=center;fontSize=24;" vertex="1" parent="1">
          <mxGeometry x="1080" y="815" width="130" height="50" as="geometry" />
        </mxCell>
        <mxCell id="FZwdTxth3LpQSzIBZDMU-129" value="" style="endArrow=none;html=1;rounded=0;fontSize=24;entryX=0.5;entryY=1;entryDx=0;entryDy=0;exitX=0.25;exitY=0.02;exitDx=0;exitDy=0;exitPerimeter=0;" edge="1" parent="1" source="FZwdTxth3LpQSzIBZDMU-126" target="FZwdTxth3LpQSzIBZDMU-123">
          <mxGeometry relative="1" as="geometry">
            <mxPoint x="1060.27" y="1010" as="sourcePoint" />
            <mxPoint x="1160.27" y="880" as="targetPoint" />
          </mxGeometry>
        </mxCell>
        <mxCell id="FZwdTxth3LpQSzIBZDMU-130" value="" style="endArrow=none;html=1;rounded=0;fontSize=24;exitX=1;exitY=0.75;exitDx=0;exitDy=0;" edge="1" parent="1" source="FZwdTxth3LpQSzIBZDMU-123" target="FZwdTxth3LpQSzIBZDMU-127">
          <mxGeometry relative="1" as="geometry">
            <mxPoint x="1000.27" y="880" as="sourcePoint" />
            <mxPoint x="1160.27" y="880" as="targetPoint" />
          </mxGeometry>
        </mxCell>
        <mxCell id="FZwdTxth3LpQSzIBZDMU-131" value="" style="endArrow=none;html=1;rounded=0;fontSize=24;exitX=1;exitY=0.5;exitDx=0;exitDy=0;entryX=0.062;entryY=0.74;entryDx=0;entryDy=0;entryPerimeter=0;" edge="1" parent="1" source="FZwdTxth3LpQSzIBZDMU-123" target="FZwdTxth3LpQSzIBZDMU-128">
          <mxGeometry relative="1" as="geometry">
            <mxPoint x="1000.27" y="880" as="sourcePoint" />
            <mxPoint x="1160.27" y="880" as="targetPoint" />
          </mxGeometry>
        </mxCell>
        <mxCell id="FZwdTxth3LpQSzIBZDMU-132" value="" style="endArrow=none;html=1;rounded=0;fontSize=24;entryX=1;entryY=0;entryDx=0;entryDy=0;exitX=0;exitY=0.5;exitDx=0;exitDy=0;" edge="1" parent="1" source="FZwdTxth3LpQSzIBZDMU-135" target="FZwdTxth3LpQSzIBZDMU-113">
          <mxGeometry relative="1" as="geometry">
            <mxPoint x="660" y="670" as="sourcePoint" />
            <mxPoint x="820" y="670" as="targetPoint" />
          </mxGeometry>
        </mxCell>
        <mxCell id="FZwdTxth3LpQSzIBZDMU-133" value="1" style="resizable=0;html=1;align=right;verticalAlign=bottom;fontSize=24;" connectable="0" vertex="1" parent="FZwdTxth3LpQSzIBZDMU-132">
          <mxGeometry x="1" relative="1" as="geometry" />
        </mxCell>
        <mxCell id="FZwdTxth3LpQSzIBZDMU-135" value="Has" style="shape=rhombus;perimeter=rhombusPerimeter;whiteSpace=wrap;html=1;align=center;fontSize=24;" vertex="1" parent="1">
          <mxGeometry x="650" y="750" width="140" height="130" as="geometry" />
        </mxCell>
        <mxCell id="FZwdTxth3LpQSzIBZDMU-136" value="" style="endArrow=none;html=1;rounded=0;fontSize=24;exitX=1;exitY=0.5;exitDx=0;exitDy=0;entryX=0;entryY=0.5;entryDx=0;entryDy=0;" edge="1" parent="1" source="FZwdTxth3LpQSzIBZDMU-135" target="FZwdTxth3LpQSzIBZDMU-123">
          <mxGeometry relative="1" as="geometry">
            <mxPoint x="660" y="670" as="sourcePoint" />
            <mxPoint x="820" y="670" as="targetPoint" />
          </mxGeometry>
        </mxCell>
        <mxCell id="FZwdTxth3LpQSzIBZDMU-137" value="" style="endArrow=none;html=1;rounded=0;fontSize=24;entryX=0.25;entryY=0;entryDx=0;entryDy=0;exitX=0.25;exitY=1;exitDx=0;exitDy=0;startArrow=none;" edge="1" parent="1" source="FZwdTxth3LpQSzIBZDMU-134" target="FZwdTxth3LpQSzIBZDMU-123">
          <mxGeometry relative="1" as="geometry">
            <mxPoint x="660" y="710" as="sourcePoint" />
            <mxPoint x="820" y="710" as="targetPoint" />
            <Array as="points">
              <mxPoint x="765" y="730" />
              <mxPoint x="830" y="680" />
            </Array>
          </mxGeometry>
        </mxCell>
        <mxCell id="FZwdTxth3LpQSzIBZDMU-139" value="N" style="resizable=0;html=1;align=right;verticalAlign=bottom;fontSize=24;" connectable="0" vertex="1" parent="FZwdTxth3LpQSzIBZDMU-137">
          <mxGeometry x="1" relative="1" as="geometry">
            <mxPoint x="8" as="offset" />
          </mxGeometry>
        </mxCell>
        <mxCell id="FZwdTxth3LpQSzIBZDMU-140" value="" style="endArrow=none;html=1;rounded=0;fontSize=24;entryX=0.25;entryY=0;entryDx=0;entryDy=0;exitX=0.25;exitY=1;exitDx=0;exitDy=0;" edge="1" parent="1" source="FZwdTxth3LpQSzIBZDMU-80" target="FZwdTxth3LpQSzIBZDMU-134">
          <mxGeometry relative="1" as="geometry">
            <mxPoint x="808" y="485" as="sourcePoint" />
            <mxPoint x="953" y="810" as="targetPoint" />
            <Array as="points" />
          </mxGeometry>
        </mxCell>
        <mxCell id="FZwdTxth3LpQSzIBZDMU-141" value="M" style="resizable=0;html=1;align=left;verticalAlign=bottom;fontSize=24;" connectable="0" vertex="1" parent="FZwdTxth3LpQSzIBZDMU-140">
          <mxGeometry x="-1" relative="1" as="geometry">
            <mxPoint x="-17" y="25" as="offset" />
          </mxGeometry>
        </mxCell>
        <mxCell id="FZwdTxth3LpQSzIBZDMU-134" value="Teaches" style="shape=rhombus;perimeter=rhombusPerimeter;whiteSpace=wrap;html=1;align=center;fontSize=24;" vertex="1" parent="1">
          <mxGeometry x="700" y="630" width="130" height="100" as="geometry" />
        </mxCell>
        <mxCell id="FZwdTxth3LpQSzIBZDMU-143" value="Has" style="shape=rhombus;perimeter=rhombusPerimeter;whiteSpace=wrap;html=1;align=center;fontSize=24;" vertex="1" parent="1">
          <mxGeometry x="660" y="1005" width="140" height="130" as="geometry" />
        </mxCell>
        <mxCell id="FZwdTxth3LpQSzIBZDMU-144" value="" style="shape=link;html=1;rounded=0;fontSize=24;entryX=0;entryY=0.5;entryDx=0;entryDy=0;" edge="1" parent="1" target="FZwdTxth3LpQSzIBZDMU-162">
          <mxGeometry relative="1" as="geometry">
            <mxPoint x="800" y="1069.5" as="sourcePoint" />
            <mxPoint x="960" y="1069.5" as="targetPoint" />
          </mxGeometry>
        </mxCell>
        <mxCell id="FZwdTxth3LpQSzIBZDMU-145" value="1" style="resizable=0;html=1;align=right;verticalAlign=bottom;fontSize=24;" connectable="0" vertex="1" parent="FZwdTxth3LpQSzIBZDMU-144">
          <mxGeometry x="1" relative="1" as="geometry" />
        </mxCell>
        <mxCell id="FZwdTxth3LpQSzIBZDMU-146" value="" style="endArrow=none;html=1;rounded=0;fontSize=24;exitX=0.3;exitY=0.2;exitDx=0;exitDy=0;exitPerimeter=0;entryX=1;entryY=0.5;entryDx=0;entryDy=0;" edge="1" parent="1" target="FZwdTxth3LpQSzIBZDMU-113">
          <mxGeometry relative="1" as="geometry">
            <mxPoint x="706" y="1030" as="sourcePoint" />
            <mxPoint x="450" y="910" as="targetPoint" />
          </mxGeometry>
        </mxCell>
        <mxCell id="FZwdTxth3LpQSzIBZDMU-147" value="1" style="resizable=0;html=1;align=right;verticalAlign=bottom;fontSize=24;" connectable="0" vertex="1" parent="FZwdTxth3LpQSzIBZDMU-146">
          <mxGeometry x="1" relative="1" as="geometry">
            <mxPoint x="30" y="38" as="offset" />
          </mxGeometry>
        </mxCell>
        <mxCell id="FZwdTxth3LpQSzIBZDMU-148" value="" style="resizable=0;html=1;align=right;verticalAlign=bottom;fontSize=24;" connectable="0" vertex="1" parent="1">
          <mxGeometry x="950.0033333333336" y="1070.08" as="geometry" />
        </mxCell>
        <mxCell id="FZwdTxth3LpQSzIBZDMU-150" value="" style="endArrow=none;html=1;rounded=0;fontSize=24;entryX=0.25;entryY=1;entryDx=0;entryDy=0;exitX=0.5;exitY=0;exitDx=0;exitDy=0;" edge="1" parent="1" source="FZwdTxth3LpQSzIBZDMU-151" target="FZwdTxth3LpQSzIBZDMU-162">
          <mxGeometry relative="1" as="geometry">
            <mxPoint x="1020.27" y="1080.08" as="sourcePoint" />
            <mxPoint x="1013.3295699999999" y="1110.08" as="targetPoint" />
          </mxGeometry>
        </mxCell>
        <mxCell id="FZwdTxth3LpQSzIBZDMU-151" value="ScheduleID" style="ellipse;whiteSpace=wrap;html=1;align=center;fontStyle=4;fontSize=24;" vertex="1" parent="1">
          <mxGeometry x="850" y="1145.08" width="150" height="55" as="geometry" />
        </mxCell>
        <mxCell id="FZwdTxth3LpQSzIBZDMU-152" value="CourseID" style="ellipse;whiteSpace=wrap;html=1;align=center;fontSize=24;" vertex="1" parent="1">
          <mxGeometry x="1010" y="1155.08" width="120" height="50" as="geometry" />
        </mxCell>
        <mxCell id="FZwdTxth3LpQSzIBZDMU-153" value="Day" style="ellipse;whiteSpace=wrap;html=1;align=center;fontSize=24;" vertex="1" parent="1">
          <mxGeometry x="1130" y="1140.08" width="160" height="60" as="geometry" />
        </mxCell>
        <mxCell id="FZwdTxth3LpQSzIBZDMU-154" value="Location" style="ellipse;whiteSpace=wrap;html=1;align=center;fontSize=24;" vertex="1" parent="1">
          <mxGeometry x="1130" y="1030" width="130" height="50" as="geometry" />
        </mxCell>
        <mxCell id="FZwdTxth3LpQSzIBZDMU-155" value="" style="endArrow=none;html=1;rounded=0;fontSize=24;exitX=0.25;exitY=0.02;exitDx=0;exitDy=0;exitPerimeter=0;entryX=0.394;entryY=1.013;entryDx=0;entryDy=0;entryPerimeter=0;" edge="1" parent="1" source="FZwdTxth3LpQSzIBZDMU-152" target="FZwdTxth3LpQSzIBZDMU-162">
          <mxGeometry relative="1" as="geometry">
            <mxPoint x="1100.27" y="1240.08" as="sourcePoint" />
            <mxPoint x="1025" y="1100" as="targetPoint" />
          </mxGeometry>
        </mxCell>
        <mxCell id="FZwdTxth3LpQSzIBZDMU-156" value="" style="endArrow=none;html=1;rounded=0;fontSize=24;exitX=0.75;exitY=1;exitDx=0;exitDy=0;" edge="1" parent="1" source="FZwdTxth3LpQSzIBZDMU-162" target="FZwdTxth3LpQSzIBZDMU-153">
          <mxGeometry relative="1" as="geometry">
            <mxPoint x="1090" y="1092.58" as="sourcePoint" />
            <mxPoint x="1200.27" y="1110.08" as="targetPoint" />
          </mxGeometry>
        </mxCell>
        <mxCell id="FZwdTxth3LpQSzIBZDMU-157" value="" style="endArrow=none;html=1;rounded=0;fontSize=24;exitX=1;exitY=0.5;exitDx=0;exitDy=0;entryX=0.062;entryY=0.74;entryDx=0;entryDy=0;entryPerimeter=0;" edge="1" parent="1" source="FZwdTxth3LpQSzIBZDMU-162" target="FZwdTxth3LpQSzIBZDMU-154">
          <mxGeometry relative="1" as="geometry">
            <mxPoint x="1090" y="1075.08" as="sourcePoint" />
            <mxPoint x="1200.27" y="1110.08" as="targetPoint" />
          </mxGeometry>
        </mxCell>
        <mxCell id="FZwdTxth3LpQSzIBZDMU-160" value="Time" style="ellipse;whiteSpace=wrap;html=1;align=center;fontSize=24;" vertex="1" parent="1">
          <mxGeometry x="1160" y="1085" width="130" height="50" as="geometry" />
        </mxCell>
        <mxCell id="FZwdTxth3LpQSzIBZDMU-161" value="" style="endArrow=none;html=1;rounded=0;fontSize=24;entryX=0.062;entryY=0.74;entryDx=0;entryDy=0;entryPerimeter=0;exitX=1;exitY=1;exitDx=0;exitDy=0;" edge="1" parent="1" target="FZwdTxth3LpQSzIBZDMU-160" source="FZwdTxth3LpQSzIBZDMU-162">
          <mxGeometry relative="1" as="geometry">
            <mxPoint x="1088.96216" y="1085.02" as="sourcePoint" />
            <mxPoint x="1350.27" y="1145.08" as="targetPoint" />
          </mxGeometry>
        </mxCell>
        <mxCell id="FZwdTxth3LpQSzIBZDMU-162" value="Schedule" style="shape=ext;margin=3;double=1;whiteSpace=wrap;html=1;align=center;fontSize=24;" vertex="1" parent="1">
          <mxGeometry x="950" y="1035.08" width="160" height="70" as="geometry" />
        </mxCell>
        <mxCell id="FZwdTxth3LpQSzIBZDMU-164" value="Admission" style="whiteSpace=wrap;html=1;align=center;fontSize=24;" vertex="1" parent="1">
          <mxGeometry x="1030" y="180" width="120" height="70" as="geometry" />
        </mxCell>
        <mxCell id="FZwdTxth3LpQSzIBZDMU-165" value="" style="endArrow=none;html=1;rounded=0;fontSize=24;entryX=0;entryY=0.5;entryDx=0;entryDy=0;exitX=0.942;exitY=0.757;exitDx=0;exitDy=0;exitPerimeter=0;" edge="1" parent="1" source="FZwdTxth3LpQSzIBZDMU-166" target="FZwdTxth3LpQSzIBZDMU-164">
          <mxGeometry relative="1" as="geometry">
            <mxPoint x="980" y="180" as="sourcePoint" />
            <mxPoint x="1160" y="210" as="targetPoint" />
          </mxGeometry>
        </mxCell>
        <mxCell id="FZwdTxth3LpQSzIBZDMU-166" value="AppID" style="ellipse;whiteSpace=wrap;html=1;align=center;fontStyle=4;fontSize=24;" vertex="1" parent="1">
          <mxGeometry x="890" y="150" width="100" height="70" as="geometry" />
        </mxCell>
        <mxCell id="FZwdTxth3LpQSzIBZDMU-167" value="Name" style="ellipse;whiteSpace=wrap;html=1;align=center;fontSize=24;" vertex="1" parent="1">
          <mxGeometry x="1030" y="110" width="120" height="50" as="geometry" />
        </mxCell>
        <mxCell id="FZwdTxth3LpQSzIBZDMU-168" value="ProgramID" style="ellipse;whiteSpace=wrap;html=1;align=center;fontSize=24;" vertex="1" parent="1">
          <mxGeometry x="1180" y="175" width="160" height="60" as="geometry" />
        </mxCell>
        <mxCell id="FZwdTxth3LpQSzIBZDMU-169" value="Email" style="ellipse;whiteSpace=wrap;html=1;align=center;fontSize=24;" vertex="1" parent="1">
          <mxGeometry x="1180" y="120" width="130" height="50" as="geometry" />
        </mxCell>
        <mxCell id="FZwdTxth3LpQSzIBZDMU-170" value="" style="endArrow=none;html=1;rounded=0;fontSize=24;exitX=0.5;exitY=1;exitDx=0;exitDy=0;entryX=0.5;entryY=0;entryDx=0;entryDy=0;" edge="1" parent="1" source="FZwdTxth3LpQSzIBZDMU-167" target="FZwdTxth3LpQSzIBZDMU-164">
          <mxGeometry relative="1" as="geometry">
            <mxPoint x="1000" y="210" as="sourcePoint" />
            <mxPoint x="1160" y="210" as="targetPoint" />
          </mxGeometry>
        </mxCell>
        <mxCell id="FZwdTxth3LpQSzIBZDMU-171" value="" style="endArrow=none;html=1;rounded=0;fontSize=24;exitX=1.025;exitY=0.414;exitDx=0;exitDy=0;exitPerimeter=0;" edge="1" parent="1" source="FZwdTxth3LpQSzIBZDMU-164" target="FZwdTxth3LpQSzIBZDMU-168">
          <mxGeometry relative="1" as="geometry">
            <mxPoint x="1000" y="210" as="sourcePoint" />
            <mxPoint x="1160" y="210" as="targetPoint" />
          </mxGeometry>
        </mxCell>
        <mxCell id="FZwdTxth3LpQSzIBZDMU-172" value="" style="endArrow=none;html=1;rounded=0;fontSize=24;exitX=1;exitY=0;exitDx=0;exitDy=0;entryX=0.062;entryY=0.74;entryDx=0;entryDy=0;entryPerimeter=0;" edge="1" parent="1" source="FZwdTxth3LpQSzIBZDMU-164" target="FZwdTxth3LpQSzIBZDMU-169">
          <mxGeometry relative="1" as="geometry">
            <mxPoint x="1000" y="210" as="sourcePoint" />
            <mxPoint x="1160" y="210" as="targetPoint" />
          </mxGeometry>
        </mxCell>
        <mxCell id="FZwdTxth3LpQSzIBZDMU-175" value="" style="endArrow=none;html=1;rounded=0;fontSize=24;exitX=1;exitY=0.75;exitDx=0;exitDy=0;" edge="1" parent="1" source="FZwdTxth3LpQSzIBZDMU-164">
          <mxGeometry relative="1" as="geometry">
            <mxPoint x="1170" y="290" as="sourcePoint" />
            <mxPoint x="1216.371365023805" y="269.5885493045839" as="targetPoint" />
          </mxGeometry>
        </mxCell>
        <mxCell id="FZwdTxth3LpQSzIBZDMU-176" value="Fee" style="ellipse;shape=doubleEllipse;margin=3;whiteSpace=wrap;html=1;align=center;fontSize=24;" vertex="1" parent="1">
          <mxGeometry x="1210" y="240" width="120" height="60" as="geometry" />
        </mxCell>
        <mxCell id="FZwdTxth3LpQSzIBZDMU-177" value="Amount" style="ellipse;whiteSpace=wrap;html=1;align=center;fontSize=24;" vertex="1" parent="1">
          <mxGeometry x="1350" y="400" width="120" height="50" as="geometry" />
        </mxCell>
        <mxCell id="FZwdTxth3LpQSzIBZDMU-178" value="" style="endArrow=none;html=1;rounded=0;fontSize=24;exitX=0.35;exitY=0.02;exitDx=0;exitDy=0;entryX=0.708;entryY=0.967;entryDx=0;entryDy=0;entryPerimeter=0;exitPerimeter=0;" edge="1" parent="1" source="FZwdTxth3LpQSzIBZDMU-177" target="FZwdTxth3LpQSzIBZDMU-176">
          <mxGeometry relative="1" as="geometry">
            <mxPoint x="1010" y="220" as="sourcePoint" />
            <mxPoint x="1090" y="200" as="targetPoint" />
          </mxGeometry>
        </mxCell>
        <mxCell id="FZwdTxth3LpQSzIBZDMU-179" value="Recieptno" style="ellipse;whiteSpace=wrap;html=1;align=center;fontSize=24;" vertex="1" parent="1">
          <mxGeometry x="1220" y="405" width="120" height="50" as="geometry" />
        </mxCell>
        <mxCell id="FZwdTxth3LpQSzIBZDMU-180" value="" style="endArrow=none;html=1;rounded=0;fontSize=24;exitX=0.45;exitY=-0.02;exitDx=0;exitDy=0;exitPerimeter=0;" edge="1" parent="1" source="FZwdTxth3LpQSzIBZDMU-179" target="FZwdTxth3LpQSzIBZDMU-176">
          <mxGeometry relative="1" as="geometry">
            <mxPoint x="1190" y="505" as="sourcePoint" />
            <mxPoint x="1270" y="485" as="targetPoint" />
          </mxGeometry>
        </mxCell>
        <mxCell id="FZwdTxth3LpQSzIBZDMU-181" value="Has" style="shape=rhombus;perimeter=rhombusPerimeter;whiteSpace=wrap;html=1;align=center;fontSize=24;" vertex="1" parent="1">
          <mxGeometry x="660" y="320" width="120" height="60" as="geometry" />
        </mxCell>
        <mxCell id="FZwdTxth3LpQSzIBZDMU-182" value="" style="endArrow=none;html=1;rounded=0;fontSize=24;entryX=0.882;entryY=-0.06;entryDx=0;entryDy=0;entryPerimeter=0;exitX=0;exitY=0.5;exitDx=0;exitDy=0;" edge="1" parent="1" source="FZwdTxth3LpQSzIBZDMU-181" target="FZwdTxth3LpQSzIBZDMU-66">
          <mxGeometry relative="1" as="geometry">
            <mxPoint x="590" y="330" as="sourcePoint" />
            <mxPoint x="750" y="330" as="targetPoint" />
          </mxGeometry>
        </mxCell>
        <mxCell id="FZwdTxth3LpQSzIBZDMU-183" value="1" style="resizable=0;html=1;align=right;verticalAlign=bottom;fontSize=24;" connectable="0" vertex="1" parent="FZwdTxth3LpQSzIBZDMU-182">
          <mxGeometry x="1" relative="1" as="geometry" />
        </mxCell>
        <mxCell id="FZwdTxth3LpQSzIBZDMU-184" value="" style="endArrow=none;html=1;rounded=0;fontSize=24;exitX=1;exitY=0.5;exitDx=0;exitDy=0;entryX=0;entryY=1;entryDx=0;entryDy=0;" edge="1" parent="1" source="FZwdTxth3LpQSzIBZDMU-181" target="FZwdTxth3LpQSzIBZDMU-164">
          <mxGeometry relative="1" as="geometry">
            <mxPoint x="590" y="330" as="sourcePoint" />
            <mxPoint x="1030" y="260" as="targetPoint" />
          </mxGeometry>
        </mxCell>
        <mxCell id="FZwdTxth3LpQSzIBZDMU-185" value="1" style="resizable=0;html=1;align=right;verticalAlign=bottom;fontSize=24;" connectable="0" vertex="1" parent="FZwdTxth3LpQSzIBZDMU-184">
          <mxGeometry x="1" relative="1" as="geometry" />
        </mxCell>
        <mxCell id="FZwdTxth3LpQSzIBZDMU-186" value="Takes" style="shape=rhombus;perimeter=rhombusPerimeter;whiteSpace=wrap;html=1;align=center;fontSize=24;" vertex="1" parent="1">
          <mxGeometry x="700" y="50" width="120" height="60" as="geometry" />
        </mxCell>
        <mxCell id="FZwdTxth3LpQSzIBZDMU-187" value="" style="endArrow=none;html=1;rounded=0;fontSize=24;exitX=1;exitY=0.5;exitDx=0;exitDy=0;entryX=0.5;entryY=1;entryDx=0;entryDy=0;" edge="1" parent="1" source="FZwdTxth3LpQSzIBZDMU-52" target="FZwdTxth3LpQSzIBZDMU-186">
          <mxGeometry relative="1" as="geometry">
            <mxPoint x="590" y="80" as="sourcePoint" />
            <mxPoint x="750" y="80" as="targetPoint" />
            <Array as="points">
              <mxPoint x="680" y="180" />
            </Array>
          </mxGeometry>
        </mxCell>
        <mxCell id="FZwdTxth3LpQSzIBZDMU-188" value="1" style="resizable=0;html=1;align=right;verticalAlign=bottom;fontSize=24;" connectable="0" vertex="1" parent="FZwdTxth3LpQSzIBZDMU-187">
          <mxGeometry x="1" relative="1" as="geometry">
            <mxPoint x="-270" y="130" as="offset" />
          </mxGeometry>
        </mxCell>
        <mxCell id="FZwdTxth3LpQSzIBZDMU-189" value="" style="endArrow=none;html=1;rounded=0;fontSize=24;exitX=1;exitY=0.5;exitDx=0;exitDy=0;entryX=0;entryY=0;entryDx=0;entryDy=0;" edge="1" parent="1" source="FZwdTxth3LpQSzIBZDMU-186" target="FZwdTxth3LpQSzIBZDMU-164">
          <mxGeometry relative="1" as="geometry">
            <mxPoint x="590" y="80" as="sourcePoint" />
            <mxPoint x="750" y="80" as="targetPoint" />
          </mxGeometry>
        </mxCell>
        <mxCell id="FZwdTxth3LpQSzIBZDMU-190" value="1" style="resizable=0;html=1;align=right;verticalAlign=bottom;fontSize=24;" connectable="0" vertex="1" parent="FZwdTxth3LpQSzIBZDMU-189">
          <mxGeometry x="1" relative="1" as="geometry" />
        </mxCell>
        <mxCell id="FZwdTxth3LpQSzIBZDMU-192" value="Libraries" style="shape=ext;margin=3;double=1;whiteSpace=wrap;html=1;align=center;fontSize=24;" vertex="1" parent="1">
          <mxGeometry x="252.5" y="1250.08" width="165" height="70" as="geometry" />
        </mxCell>
        <mxCell id="FZwdTxth3LpQSzIBZDMU-194" value="" style="endArrow=none;html=1;rounded=0;fontSize=24;exitX=0.984;exitY=0.354;exitDx=0;exitDy=0;exitPerimeter=0;" edge="1" parent="1" source="FZwdTxth3LpQSzIBZDMU-195" target="FZwdTxth3LpQSzIBZDMU-192">
          <mxGeometry relative="1" as="geometry">
            <mxPoint x="230" y="1170.08" as="sourcePoint" />
            <mxPoint x="279.9999999999998" y="1205.08" as="targetPoint" />
          </mxGeometry>
        </mxCell>
        <mxCell id="FZwdTxth3LpQSzIBZDMU-195" value="LibraryID" style="ellipse;whiteSpace=wrap;html=1;align=center;fontStyle=4;fontSize=24;" vertex="1" parent="1">
          <mxGeometry x="100" y="1310" width="120" height="70" as="geometry" />
        </mxCell>
        <mxCell id="FZwdTxth3LpQSzIBZDMU-196" value="Name" style="ellipse;whiteSpace=wrap;html=1;align=center;fontSize=24;" vertex="1" parent="1">
          <mxGeometry x="240" y="1380" width="120" height="50" as="geometry" />
        </mxCell>
        <mxCell id="FZwdTxth3LpQSzIBZDMU-197" value="Location" style="ellipse;whiteSpace=wrap;html=1;align=center;fontSize=24;" vertex="1" parent="1">
          <mxGeometry x="390" y="1370" width="180" height="60" as="geometry" />
        </mxCell>
        <mxCell id="FZwdTxth3LpQSzIBZDMU-198" value="Email" style="ellipse;whiteSpace=wrap;html=1;align=center;fontSize=24;" vertex="1" parent="1">
          <mxGeometry x="490" y="1310" width="130" height="50" as="geometry" />
        </mxCell>
        <mxCell id="FZwdTxth3LpQSzIBZDMU-199" value="" style="endArrow=none;html=1;rounded=0;fontSize=24;exitX=0.5;exitY=0;exitDx=0;exitDy=0;entryX=0.383;entryY=1.013;entryDx=0;entryDy=0;entryPerimeter=0;" edge="1" parent="1" source="FZwdTxth3LpQSzIBZDMU-196" target="FZwdTxth3LpQSzIBZDMU-192">
          <mxGeometry relative="1" as="geometry">
            <mxPoint x="250" y="1200.08" as="sourcePoint" />
            <mxPoint x="335" y="1180" as="targetPoint" />
          </mxGeometry>
        </mxCell>
        <mxCell id="FZwdTxth3LpQSzIBZDMU-200" value="" style="endArrow=none;html=1;rounded=0;fontSize=24;exitX=0.75;exitY=1;exitDx=0;exitDy=0;" edge="1" parent="1" source="FZwdTxth3LpQSzIBZDMU-192" target="FZwdTxth3LpQSzIBZDMU-197">
          <mxGeometry relative="1" as="geometry">
            <mxPoint x="390" y="1220" as="sourcePoint" />
            <mxPoint x="410" y="1200.08" as="targetPoint" />
          </mxGeometry>
        </mxCell>
        <mxCell id="FZwdTxth3LpQSzIBZDMU-201" value="" style="endArrow=none;html=1;rounded=0;fontSize=24;entryX=0.062;entryY=0.74;entryDx=0;entryDy=0;entryPerimeter=0;exitX=1;exitY=0.75;exitDx=0;exitDy=0;" edge="1" parent="1" source="FZwdTxth3LpQSzIBZDMU-192" target="FZwdTxth3LpQSzIBZDMU-198">
          <mxGeometry relative="1" as="geometry">
            <mxPoint x="390" y="1250" as="sourcePoint" />
            <mxPoint x="410" y="1200.08" as="targetPoint" />
          </mxGeometry>
        </mxCell>
        <mxCell id="FZwdTxth3LpQSzIBZDMU-204" value="Has" style="shape=rhombus;perimeter=rhombusPerimeter;whiteSpace=wrap;html=1;align=center;fontSize=24;" vertex="1" parent="1">
          <mxGeometry x="260" y="1105.08" width="117.5" height="89.92" as="geometry" />
        </mxCell>
        <mxCell id="FZwdTxth3LpQSzIBZDMU-205" value="" style="endArrow=none;html=1;rounded=0;fontSize=24;exitX=0.25;exitY=1;exitDx=0;exitDy=0;entryX=0.5;entryY=0;entryDx=0;entryDy=0;" edge="1" parent="1" source="FZwdTxth3LpQSzIBZDMU-113" target="FZwdTxth3LpQSzIBZDMU-204">
          <mxGeometry relative="1" as="geometry">
            <mxPoint x="550" y="1120" as="sourcePoint" />
            <mxPoint x="710" y="1120" as="targetPoint" />
            <Array as="points">
              <mxPoint x="300" y="1050" />
            </Array>
          </mxGeometry>
        </mxCell>
        <mxCell id="FZwdTxth3LpQSzIBZDMU-206" value="1" style="resizable=0;html=1;align=right;verticalAlign=bottom;fontSize=24;" connectable="0" vertex="1" parent="FZwdTxth3LpQSzIBZDMU-205">
          <mxGeometry x="1" relative="1" as="geometry">
            <mxPoint x="-9" y="5" as="offset" />
          </mxGeometry>
        </mxCell>
        <mxCell id="FZwdTxth3LpQSzIBZDMU-207" value="" style="endArrow=none;html=1;rounded=0;fontSize=24;exitX=0.5;exitY=1;exitDx=0;exitDy=0;entryX=0.412;entryY=0.018;entryDx=0;entryDy=0;entryPerimeter=0;" edge="1" parent="1" source="FZwdTxth3LpQSzIBZDMU-204" target="FZwdTxth3LpQSzIBZDMU-192">
          <mxGeometry relative="1" as="geometry">
            <mxPoint x="550" y="1200" as="sourcePoint" />
            <mxPoint x="710" y="1200" as="targetPoint" />
          </mxGeometry>
        </mxCell>
        <mxCell id="FZwdTxth3LpQSzIBZDMU-208" value="1" style="resizable=0;html=1;align=right;verticalAlign=bottom;fontSize=24;" connectable="0" vertex="1" parent="FZwdTxth3LpQSzIBZDMU-207">
          <mxGeometry x="1" relative="1" as="geometry" />
        </mxCell>
        <mxCell id="FZwdTxth3LpQSzIBZDMU-209" value="Certification" style="whiteSpace=wrap;html=1;align=center;fontSize=24;" vertex="1" parent="1">
          <mxGeometry x="1320" y="645" width="150" height="65" as="geometry" />
        </mxCell>
        <mxCell id="FZwdTxth3LpQSzIBZDMU-210" value="" style="endArrow=none;html=1;rounded=0;fontSize=24;entryX=0.5;entryY=1;entryDx=0;entryDy=0;" edge="1" parent="1" source="FZwdTxth3LpQSzIBZDMU-211" target="FZwdTxth3LpQSzIBZDMU-209">
          <mxGeometry relative="1" as="geometry">
            <mxPoint x="1270" y="635" as="sourcePoint" />
            <mxPoint x="1450" y="665" as="targetPoint" />
          </mxGeometry>
        </mxCell>
        <mxCell id="FZwdTxth3LpQSzIBZDMU-211" value="CertID" style="ellipse;whiteSpace=wrap;html=1;align=center;fontStyle=4;fontSize=24;" vertex="1" parent="1">
          <mxGeometry x="1360" y="770" width="100" height="70" as="geometry" />
        </mxCell>
        <mxCell id="FZwdTxth3LpQSzIBZDMU-212" value="Name" style="ellipse;whiteSpace=wrap;html=1;align=center;fontSize=24;" vertex="1" parent="1">
          <mxGeometry x="1350" y="560" width="120" height="50" as="geometry" />
        </mxCell>
        <mxCell id="FZwdTxth3LpQSzIBZDMU-213" value="Syllabus" style="ellipse;whiteSpace=wrap;html=1;align=center;fontSize=24;" vertex="1" parent="1">
          <mxGeometry x="1530" y="670" width="160" height="60" as="geometry" />
        </mxCell>
        <mxCell id="FZwdTxth3LpQSzIBZDMU-214" value="criteria" style="ellipse;whiteSpace=wrap;html=1;align=center;fontSize=24;" vertex="1" parent="1">
          <mxGeometry x="1530" y="585" width="130" height="50" as="geometry" />
        </mxCell>
        <mxCell id="FZwdTxth3LpQSzIBZDMU-215" value="" style="endArrow=none;html=1;rounded=0;fontSize=24;exitX=0.5;exitY=1;exitDx=0;exitDy=0;entryX=0.5;entryY=0;entryDx=0;entryDy=0;" edge="1" parent="1" source="FZwdTxth3LpQSzIBZDMU-212" target="FZwdTxth3LpQSzIBZDMU-209">
          <mxGeometry relative="1" as="geometry">
            <mxPoint x="1290" y="665" as="sourcePoint" />
            <mxPoint x="1450" y="665" as="targetPoint" />
          </mxGeometry>
        </mxCell>
        <mxCell id="FZwdTxth3LpQSzIBZDMU-216" value="" style="endArrow=none;html=1;rounded=0;fontSize=24;exitX=1;exitY=0.75;exitDx=0;exitDy=0;" edge="1" parent="1" source="FZwdTxth3LpQSzIBZDMU-209" target="FZwdTxth3LpQSzIBZDMU-213">
          <mxGeometry relative="1" as="geometry">
            <mxPoint x="1290" y="665" as="sourcePoint" />
            <mxPoint x="1450" y="665" as="targetPoint" />
          </mxGeometry>
        </mxCell>
        <mxCell id="FZwdTxth3LpQSzIBZDMU-217" value="" style="endArrow=none;html=1;rounded=0;fontSize=24;exitX=1;exitY=0.5;exitDx=0;exitDy=0;entryX=0.062;entryY=0.74;entryDx=0;entryDy=0;entryPerimeter=0;" edge="1" parent="1" source="FZwdTxth3LpQSzIBZDMU-209" target="FZwdTxth3LpQSzIBZDMU-214">
          <mxGeometry relative="1" as="geometry">
            <mxPoint x="1290" y="665" as="sourcePoint" />
            <mxPoint x="1450" y="665" as="targetPoint" />
          </mxGeometry>
        </mxCell>
        <mxCell id="FZwdTxth3LpQSzIBZDMU-219" value="Expiry" style="ellipse;whiteSpace=wrap;html=1;align=center;dashed=1;fontSize=24;" vertex="1" parent="1">
          <mxGeometry x="1470" y="765" width="120" height="50" as="geometry" />
        </mxCell>
        <mxCell id="FZwdTxth3LpQSzIBZDMU-220" style="edgeStyle=orthogonalEdgeStyle;rounded=0;orthogonalLoop=1;jettySize=auto;html=1;exitX=0.5;exitY=1;exitDx=0;exitDy=0;fontSize=24;" edge="1" parent="1" source="FZwdTxth3LpQSzIBZDMU-219" target="FZwdTxth3LpQSzIBZDMU-219">
          <mxGeometry relative="1" as="geometry" />
        </mxCell>
        <mxCell id="FZwdTxth3LpQSzIBZDMU-223" value="" style="endArrow=none;html=1;rounded=0;fontSize=24;entryX=0.5;entryY=0;entryDx=0;entryDy=0;exitX=0.807;exitY=1;exitDx=0;exitDy=0;exitPerimeter=0;" edge="1" parent="1" source="FZwdTxth3LpQSzIBZDMU-209" target="FZwdTxth3LpQSzIBZDMU-219">
          <mxGeometry relative="1" as="geometry">
            <mxPoint x="1240" y="720" as="sourcePoint" />
            <mxPoint x="1400" y="720" as="targetPoint" />
          </mxGeometry>
        </mxCell>
        <mxCell id="FZwdTxth3LpQSzIBZDMU-224" value="Gets" style="shape=rhombus;perimeter=rhombusPerimeter;whiteSpace=wrap;html=1;align=center;fontSize=24;" vertex="1" parent="1">
          <mxGeometry x="1510" y="250" width="120" height="60" as="geometry" />
        </mxCell>
        <mxCell id="FZwdTxth3LpQSzIBZDMU-225" value="" style="endArrow=none;html=1;rounded=0;fontSize=24;entryX=0.75;entryY=0;entryDx=0;entryDy=0;exitX=0.5;exitY=0;exitDx=0;exitDy=0;" edge="1" parent="1" source="FZwdTxth3LpQSzIBZDMU-224" target="FZwdTxth3LpQSzIBZDMU-52">
          <mxGeometry relative="1" as="geometry">
            <mxPoint x="740" y="290" as="sourcePoint" />
            <mxPoint x="900" y="290" as="targetPoint" />
            <Array as="points">
              <mxPoint x="1400" y="40" />
              <mxPoint x="660" y="20" />
            </Array>
          </mxGeometry>
        </mxCell>
        <mxCell id="FZwdTxth3LpQSzIBZDMU-226" value="1" style="resizable=0;html=1;align=right;verticalAlign=bottom;fontSize=24;" connectable="0" vertex="1" parent="FZwdTxth3LpQSzIBZDMU-225">
          <mxGeometry x="1" relative="1" as="geometry" />
        </mxCell>
        <mxCell id="FZwdTxth3LpQSzIBZDMU-227" value="" style="endArrow=none;html=1;rounded=0;fontSize=24;entryX=0.887;entryY=-0.015;entryDx=0;entryDy=0;entryPerimeter=0;exitX=0.5;exitY=1;exitDx=0;exitDy=0;" edge="1" parent="1" source="FZwdTxth3LpQSzIBZDMU-224" target="FZwdTxth3LpQSzIBZDMU-209">
          <mxGeometry relative="1" as="geometry">
            <mxPoint x="740" y="290" as="sourcePoint" />
            <mxPoint x="900" y="290" as="targetPoint" />
            <Array as="points">
              <mxPoint x="1540" y="510" />
            </Array>
          </mxGeometry>
        </mxCell>
        <mxCell id="FZwdTxth3LpQSzIBZDMU-228" value="N" style="resizable=0;html=1;align=right;verticalAlign=bottom;fontSize=24;" connectable="0" vertex="1" parent="FZwdTxth3LpQSzIBZDMU-227">
          <mxGeometry x="1" relative="1" as="geometry" />
        </mxCell>
        <mxCell id="FZwdTxth3LpQSzIBZDMU-229" value="Has" style="shape=rhombus;perimeter=rhombusPerimeter;whiteSpace=wrap;html=1;align=center;fontSize=24;" vertex="1" parent="1">
          <mxGeometry x="1070" y="650" width="100" height="60" as="geometry" />
        </mxCell>
        <mxCell id="FZwdTxth3LpQSzIBZDMU-230" value="" style="endArrow=none;html=1;rounded=0;fontSize=24;entryX=0;entryY=0.5;entryDx=0;entryDy=0;exitX=0.355;exitY=1.02;exitDx=0;exitDy=0;exitPerimeter=0;" edge="1" parent="1" source="FZwdTxth3LpQSzIBZDMU-80" target="FZwdTxth3LpQSzIBZDMU-209">
          <mxGeometry relative="1" as="geometry">
            <mxPoint x="740" y="500" as="sourcePoint" />
            <mxPoint x="900" y="500" as="targetPoint" />
            <Array as="points">
              <mxPoint x="810" y="610" />
              <mxPoint x="1000" y="720" />
              <mxPoint x="1070" y="680" />
              <mxPoint x="1120" y="710" />
            </Array>
          </mxGeometry>
        </mxCell>
        <mxCell id="FZwdTxth3LpQSzIBZDMU-231" value="M" style="resizable=0;html=1;align=left;verticalAlign=bottom;fontSize=24;" connectable="0" vertex="1" parent="FZwdTxth3LpQSzIBZDMU-230">
          <mxGeometry x="-1" relative="1" as="geometry">
            <mxPoint y="34" as="offset" />
          </mxGeometry>
        </mxCell>
        <mxCell id="FZwdTxth3LpQSzIBZDMU-232" value="N" style="resizable=0;html=1;align=right;verticalAlign=bottom;fontSize=24;" connectable="0" vertex="1" parent="FZwdTxth3LpQSzIBZDMU-230">
          <mxGeometry x="1" relative="1" as="geometry" />
        </mxCell>
      </root>
    </mxGraphModel>
  </diagram>
</mxfile>
